<svg width="20" height="20" viewBox="0 0 20 20" fill="none" xmlns="http://www.w3.org/2000/svg">
<path d="M6.95589 2.31098C4.73367 3.02209 2.73367 4.68876 1.867 6.55543C0.844778 8.71098 1.24478 11.7777 2.77811 13.5999C3.08922 13.9554 3.33367 14.511 3.33367 14.7999C3.33367 15.4443 2.84478 16.4665 2.35589 16.8665C2.15589 17.0443 2.00033 17.3554 2.00033 17.5999C2.00033 17.9999 2.11144 18.0443 3.067 17.9554C3.64478 17.8888 4.73367 17.5777 5.44478 17.2221C6.68922 16.6443 6.97811 16.5999 9.77811 16.5777C12.6892 16.5554 12.8226 16.5332 14.2226 15.8443C17.1781 14.3999 18.667 12.2221 18.667 9.33321C18.667 6.44432 17.1781 4.26654 14.2226 2.82209C12.9114 2.17765 12.5781 2.11098 10.3337 2.06654C8.73367 2.02209 7.55589 2.11098 6.95589 2.31098ZM10.667 5.44432C11.2448 6.15543 10.3781 7.24432 9.62256 6.75543C8.84478 6.26654 9.11144 5.11098 10.0003 5.11098C10.2226 5.11098 10.5114 5.26654 10.667 5.44432ZM10.667 10.9999V13.3332H10.0003H9.33367V10.9999V8.66654H10.0003H10.667V10.9999Z" fill="white"/>
</svg>
