<svg width="24" height="24" viewBox="0 0 24 24" fill="none" xmlns="http://www.w3.org/2000/svg">
<path d="M19.53 5.52984C19.8229 5.23695 19.8229 4.76208 19.53 4.46918C19.2371 4.17629 18.7623 4.17629 18.4694 4.46918L14.0071 8.9314L14.0071 6.49938C14.0071 6.08517 13.6714 5.74938 13.2571 5.74938C12.8429 5.74938 12.5071 6.08517 12.5071 6.49938L12.5071 10.7421C12.5071 10.941 12.5862 11.1317 12.7268 11.2724C12.8675 11.413 13.0582 11.4921 13.2572 11.4921L17.4998 11.492C17.914 11.492 18.2498 11.1562 18.2498 10.742C18.2498 10.3278 17.914 9.99202 17.4998 9.99202L15.0678 9.99204L19.53 5.52984Z" fill="#223342"/>
<path d="M10.7425 12.5074L6.49984 12.5074C6.08563 12.5074 5.74985 12.8432 5.74985 13.2574C5.74985 13.6716 6.08564 14.0074 6.49985 14.0074L8.93183 14.0074L4.46967 18.4695C4.17678 18.7624 4.17678 19.2373 4.46967 19.5302C4.76256 19.8231 5.23744 19.8231 5.53033 19.5302L9.99249 15.068L9.99249 17.5C9.99249 17.9143 10.3283 18.25 10.7425 18.25C11.1567 18.25 11.4925 17.9143 11.4925 17.5L11.4925 13.2574C11.4925 13.0585 11.4135 12.8677 11.2728 12.7271C11.1322 12.5864 10.9414 12.5074 10.7425 12.5074Z" fill="#223342"/>
</svg>
