<svg width="24" height="24" viewBox="0 0 24 24" xmlns="http://www.w3.org/2000/svg">
    <path fill-rule="evenodd" clip-rule="evenodd"
          d="M7.75233 7.52763C7.752 7.51846 7.75183 7.50925 7.75183 7.5C7.75183 4.87665 9.87848 2.75 12.5018 2.75C15.1252 2.75 17.2518 4.87665 17.2518 7.5C17.2518 7.50925 17.2517 7.51846 17.2513 7.52763C18.9981 7.73363 20.4303 9.0707 20.7255 10.8424L21.7255 16.8424C22.1319 19.2805 20.2517 21.5 17.78 21.5H7.22365C4.75189 21.5 2.87172 19.2805 3.27807 16.8424L4.27807 10.8424C4.57336 9.07068 6.00549 7.7336 7.75233 7.52763ZM9.25183 7.5C9.25183 5.70507 10.7069 4.25 12.5018 4.25C14.2968 4.25 15.7518 5.70507 15.7518 7.5H9.25183ZM4.75766 17.089L5.75766 11.089C5.95857 9.88353 7.00155 9 8.22364 9H16.78C18.0021 9 19.045 9.88353 19.2459 11.089L20.2459 17.089C20.4999 18.6128 19.3248 20 17.78 20H7.22365C5.6788 20 4.50369 18.6128 4.75766 17.089Z"
    />
</svg>
