<svg width="25" height="25" viewBox="0 0 25 25" fill="none" xmlns="http://www.w3.org/2000/svg">
    <path d="M17.0303 11.0303C17.3232 10.7374 17.3232 10.2626 17.0303 9.96967C16.7374 9.67678 16.2626 9.67678 15.9697 9.96967L13.5 12.4393L12.5303 11.4697C12.2374 11.1768 11.7626 11.1768 11.4697 11.4697L7.96967 14.9697C7.67678 15.2626 7.67678 15.7374 7.96967 16.0303C8.26256 16.3232 8.73744 16.3232 9.03033 16.0303L12 13.0607L12.9697 14.0303C13.2626 14.3232 13.7374 14.3232 14.0303 14.0303L17.0303 11.0303Z"
    />
    <path fill-rule="evenodd" clip-rule="evenodd"
          d="M2.5 12.5C2.5 16.2385 2.5 18.1077 3.30385 19.5C3.83046 20.4121 4.58788 21.1695 5.5 21.6962C6.8923 22.5 8.76154 22.5 12.5 22.5C16.2385 22.5 18.1077 22.5 19.5 21.6962C20.4121 21.1695 21.1695 20.4121 21.6962 19.5C22.5 18.1077 22.5 16.2385 22.5 12.5C22.5 8.76154 22.5 6.8923 21.6962 5.5C21.1695 4.58788 20.4121 3.83046 19.5 3.30385C18.1077 2.5 16.2385 2.5 12.5 2.5C8.76154 2.5 6.8923 2.5 5.5 3.30385C4.58788 3.83046 3.83046 4.58788 3.30385 5.5C2.5 6.8923 2.5 8.76154 2.5 12.5ZM20.3971 6.25C20.6453 6.6798 20.8146 7.25097 20.9056 8.25559C20.9986 9.28082 21 10.6032 21 12.5C21 14.3968 20.9986 15.7192 20.9056 16.7444C20.8146 17.749 20.6453 18.3202 20.3971 18.75C20.0022 19.4341 19.4341 20.0022 18.75 20.3971C18.3202 20.6453 17.749 20.8146 16.7444 20.9056C15.7192 20.9986 14.3968 21 12.5 21C10.6032 21 9.28082 20.9986 8.25559 20.9056C7.25097 20.8146 6.6798 20.6453 6.25 20.3971C5.56591 20.0022 4.99784 19.4341 4.60289 18.75C4.35474 18.3202 4.18541 17.749 4.09436 16.7444C4.00144 15.7192 4 14.3968 4 12.5C4 10.6032 4.00144 9.28082 4.09436 8.25559C4.18541 7.25097 4.35474 6.6798 4.60289 6.25C4.99784 5.56591 5.56591 4.99784 6.25 4.60289C6.6798 4.35474 7.25097 4.18541 8.25559 4.09436C9.28082 4.00144 10.6032 4 12.5 4C14.3968 4 15.7192 4.00144 16.7444 4.09436C17.749 4.18541 18.3202 4.35474 18.75 4.60289C19.4341 4.99784 20.0022 5.56591 20.3971 6.25Z"
    />
</svg>
