<svg width="20" height="20" viewBox="0 0 20 20" fill="none" xmlns="http://www.w3.org/2000/svg">
<path d="M1.60072 2.2665C1.22294 2.64428 1.22294 16.0221 1.60072 16.3998C1.75627 16.5554 2.35627 16.6665 2.93405 16.6665C3.88961 16.6665 4.04516 16.5998 4.22294 16.1109C4.37849 15.7109 4.60072 15.5554 5.00072 15.5554C5.40072 15.5554 5.62294 15.7109 5.77849 16.1109L6.00072 16.6665H10.0007H14.0007L14.2229 16.1109C14.5118 15.3332 15.4896 15.3332 15.7785 16.1109C15.9563 16.5998 16.1118 16.6665 17.0674 16.6665C17.6452 16.6665 18.2452 16.5554 18.4007 16.3998C18.7785 16.0221 18.7785 3.97761 18.4007 3.59984C18.2007 3.39984 16.6674 3.33317 12.8896 3.33317H7.64516L7.15627 2.6665L6.64516 1.99984H4.26738C2.68961 1.99984 1.77849 2.08873 1.60072 2.2665ZM8.20072 6.55539C8.66738 7.42206 8.68961 7.62206 8.44516 8.19984C8.22294 8.77761 8.24516 8.93317 8.66738 9.51095C8.93405 9.8665 9.46738 10.3998 9.82294 10.6665C10.4007 11.0887 10.5563 11.1109 11.134 10.8887C11.7118 10.6443 11.9118 10.6665 12.7785 11.1332C13.8896 11.7332 14.0452 12.2221 13.2896 12.7554C12.134 13.5776 10.4896 12.8887 8.40072 10.7332C6.33405 8.57761 5.77849 7.17762 6.57849 6.04428C7.11183 5.28873 7.60072 5.44428 8.20072 6.55539Z" fill="white"/>
</svg>
