<svg width="20" height="20" viewBox="0 0 20 20" fill="none" xmlns="http://www.w3.org/2000/svg">
<path d="M1.33276 7.33333C1.33276 11.1333 1.35499 11.3333 1.75499 11.3333C2.02165 11.3333 3.42165 12.6222 5.37721 14.6667C8.31054 17.7333 8.62165 18 9.33276 18C10.2217 18 10.6661 17.6889 10.6661 17.0667C10.6661 16.7556 10.8439 16.6667 11.3994 16.6667C12.2217 16.6667 12.6661 16.3333 12.6661 15.7333C12.6661 15.4222 12.8439 15.3333 13.3994 15.3333C14.2217 15.3333 14.6661 15 14.6661 14.4C14.6661 14.0889 14.8439 14 15.3994 14C16.355 14 16.6661 13.6667 16.6661 12.6444C16.6661 11.9111 16.4883 11.6889 14.5105 9.91111C12.4661 8.08889 12.2883 7.97778 11.555 8.11111C9.35499 8.48889 7.64387 8.48889 6.93276 8.13333C6.0661 7.68889 5.55499 6.75556 5.55499 5.6C5.55499 4.57778 5.77721 4.35556 7.35499 3.8L8.55499 3.35556H4.95499L1.33276 3.33333V7.33333Z" fill="white"/>
<path d="M9.28824 4.26675C6.68824 5.17786 6.66602 5.17786 6.66602 5.88897C6.66602 6.31119 6.84379 6.75564 7.11046 7.00008C7.5549 7.40008 8.51046 7.40008 11.7771 6.97786L12.7771 6.86675L15.2882 9.26675C17.0216 10.9334 17.7771 11.8223 17.7771 12.1556C17.7771 12.6001 17.8882 12.6667 18.5549 12.6667H19.3327V8.66675C19.3327 6.37786 19.2438 4.66675 19.1327 4.66675C19.0216 4.66675 18.4216 4.77786 17.8216 4.91119C16.7327 5.17786 16.6882 5.15564 14.9993 4.24453C13.9771 3.68897 13.0216 3.33342 12.5993 3.35564C12.1993 3.35564 10.7105 3.77786 9.28824 4.26675Z" fill="white"/>
</svg>
