<svg width="20" height="20" viewBox="0 0 20 20" fill="none" xmlns="http://www.w3.org/2000/svg">
<path d="M3.57778 2.97763C3.31111 3.28874 2.02222 13.8887 2 15.7999C2 16.3554 2.11111 16.911 2.26667 17.0665C2.64444 17.4443 17.3556 17.4443 17.7333 17.0665C17.8889 16.911 18 16.3554 18 15.7776C17.9778 13.8887 16.6889 3.28874 16.4222 2.97763C16.2222 2.73319 15.0667 2.66652 10 2.66652C4.93333 2.66652 3.77778 2.73319 3.57778 2.97763ZM7.77778 4.79985C7.91111 5.11097 8 5.86652 8 6.46652C8 7.93319 8.66667 8.66652 10 8.66652C11.3333 8.66652 12 7.93319 12 6.46652C12 4.82208 12.3111 4.17763 13.0667 4.26652C13.7111 4.33319 14.0222 5.11097 13.6 5.62208C13.4667 5.77763 13.3111 6.28874 13.2222 6.77763C12.8889 8.66652 11.6889 9.77763 10 9.77763C8.28889 9.77763 7.08889 8.6443 6.77778 6.73319C6.68889 6.19985 6.53333 5.73319 6.42222 5.6443C6.2 5.51097 6.15556 4.59985 6.37778 4.37763C6.75556 3.99985 7.57778 4.2443 7.77778 4.79985Z" fill="#ECECEC"/>
</svg>
