<svg width="40" height="40" viewBox="0 0 40 40" fill="none" xmlns="http://www.w3.org/2000/svg">
<path d="M19.9048 7.99951C26.4798 7.99951 31.8095 13.3293 31.8095 19.9043C31.8095 26.4793 26.4798 31.809 19.9048 31.809C17.8009 31.8124 15.7341 31.2557 13.9167 30.1959L8.00478 31.809L9.6143 25.8947C8.5537 24.0767 7.9965 22.009 8.00002 19.9043C8.00002 13.3293 13.3298 7.99951 19.9048 7.99951ZM15.8476 14.309L15.6095 14.3186C15.4554 14.3279 15.3048 14.3684 15.1667 14.4376C15.0375 14.5107 14.9197 14.6022 14.8167 14.709C14.6738 14.8436 14.5929 14.9602 14.506 15.0733C14.0656 15.6458 13.8286 16.3487 13.8322 17.0709C13.8345 17.6543 13.9869 18.2221 14.225 18.7531C14.7119 19.8269 15.5131 20.9638 16.5703 22.0174C16.825 22.2709 17.075 22.5257 17.3441 22.7626C18.6576 23.9191 20.2229 24.7531 21.9155 25.1983L22.5917 25.3019C22.8119 25.3138 23.0322 25.2971 23.2536 25.2864C23.6003 25.2685 23.9388 25.1746 24.2453 25.0114C24.4012 24.9311 24.5533 24.8437 24.7012 24.7495C24.7012 24.7495 24.7524 24.7162 24.85 24.6424C25.0107 24.5233 25.1095 24.4388 25.2429 24.2995C25.3417 24.1971 25.4274 24.0769 25.4929 23.94C25.5857 23.7459 25.6786 23.3757 25.7167 23.0674C25.7453 22.8317 25.7369 22.7031 25.7333 22.6233C25.7286 22.4959 25.6226 22.3638 25.5072 22.3078L24.8143 21.9971C24.8143 21.9971 23.7786 21.5459 23.1453 21.2578C23.079 21.2289 23.008 21.2124 22.9357 21.209C22.8543 21.2007 22.772 21.2098 22.6944 21.2359C22.6167 21.262 22.5456 21.3044 22.4857 21.3602C22.4798 21.3578 22.4 21.4257 21.5393 22.4686C21.4899 22.5349 21.4219 22.5851 21.3438 22.6127C21.2658 22.6402 21.1813 22.6439 21.1012 22.6233C21.0237 22.6025 20.9477 22.5763 20.8738 22.5448C20.7262 22.4828 20.675 22.459 20.5738 22.4162C19.8906 22.118 19.258 21.7152 18.6988 21.2221C18.5488 21.0912 18.4095 20.9483 18.2667 20.8102C17.7983 20.3617 17.3902 19.8543 17.0524 19.3007L16.9822 19.1876C16.9317 19.1116 16.8909 19.0296 16.8607 18.9436C16.8155 18.7686 16.9333 18.6281 16.9333 18.6281C16.9333 18.6281 17.2226 18.3114 17.3572 18.14C17.4881 17.9733 17.5988 17.8114 17.6703 17.6959C17.8107 17.4698 17.8548 17.2376 17.781 17.0578C17.4476 16.2436 17.1024 15.4328 16.7476 14.6281C16.6774 14.4686 16.4691 14.3543 16.2798 14.3317C16.2155 14.3245 16.1512 14.3174 16.0869 14.3126C15.927 14.3047 15.7668 14.3063 15.6072 14.3174L15.8476 14.309Z" fill="white"/>
</svg>
