<svg width="20" height="20" viewBox="0 0 20 20" fill="none" xmlns="http://www.w3.org/2000/svg">
<path d="M6.26667 6.28889C2.35556 10.2 2 10.6222 2 11.3333C2 12.0444 2.28889 12.4 4.95556 15.0667C7.6 17.7111 7.97778 18 8.66667 18C9.37778 18 9.8 17.6444 13.7333 13.7111L18 9.44444V6.46667V3.51111L17.2444 2.75556L16.4889 2H13.5111H10.5556L6.26667 6.28889ZM16.1778 3.82222C16.3333 3.97778 16.4444 4.35556 16.4444 4.66667C16.4444 4.97778 16.3333 5.35556 16.1778 5.51111C16.0222 5.66667 15.6444 5.77778 15.3333 5.77778C15.0222 5.77778 14.6444 5.66667 14.4889 5.51111C14.1556 5.17778 14.1556 4.15555 14.4889 3.82222C14.8222 3.48889 15.8444 3.48889 16.1778 3.82222ZM10.6889 11.4222C10.9778 12.5556 11.0444 13.0444 10.8667 13.2667C10.4222 13.7778 10.2667 13.5778 10.1111 12.2667C10.0222 11.5778 9.73333 10.1333 9.46667 9.06667C9 7.31111 8.97778 7.11111 9.31111 6.77778C9.64444 6.44444 9.68889 6.55556 9.95556 8.15556C10.1333 9.11111 10.4444 10.5778 10.6889 11.4222ZM13.2889 8.8C14.2222 9.44444 13.6889 11.1111 12.5111 11.1111C12.2444 11.1111 11.8 10.9111 11.5556 10.6667C10.3333 9.44444 11.8667 7.8 13.2889 8.8ZM8.44444 9.33333C8.97778 9.86667 9.02222 10.6 8.51111 11.1556C7.75556 12 6.22222 11.4 6.22222 10.2667C6.22222 9.02222 7.57778 8.46667 8.44444 9.33333Z" fill="#ECECEC"/>
<path d="M11.866 9.44438C11.7771 9.62216 11.8438 9.93327 11.9993 10.111C12.3993 10.5777 13.1104 10.5333 13.1104 10.0444C13.1104 9.24438 12.1104 8.77771 11.866 9.44438Z" fill="#ECECEC"/>
<path d="M6.93416 10.0223C7.02305 10.689 7.6675 11.089 8.04528 10.7112C8.42305 10.3334 8.02305 9.68897 7.35639 9.60008C6.95639 9.53341 6.8675 9.6223 6.93416 10.0223Z" fill="#ECECEC"/>
</svg>
