<svg width="20" height="20" viewBox="0 0 20 20" fill="none" xmlns="http://www.w3.org/2000/svg">
<path d="M8.97782 1.88885C8.37782 2.79996 7.91115 2.95551 7.02227 2.51107C5.88893 1.97773 5.11115 2.35551 5.11115 3.4444C5.11115 3.93329 4.93338 4.39996 4.66671 4.66662C4.40004 4.93329 3.93338 5.11107 3.44449 5.11107C2.3556 5.11107 1.97782 5.88885 2.51115 7.02218C2.9556 7.91107 2.80004 8.37773 1.88893 8.97773C1.13338 9.48884 1.13338 10.5111 1.88893 11.0222C2.80004 11.6222 2.9556 12.0888 2.51115 12.9777C1.97782 14.1111 2.3556 14.8888 3.44449 14.8888C4.46671 14.8888 5.11115 15.5333 5.11115 16.5555C5.11115 17.6444 5.88893 18.0222 7.02227 17.4888C7.91115 17.0444 8.37782 17.2 8.97782 18.1111C9.48893 18.8666 10.5112 18.8666 11.0223 18.1111C11.6223 17.2 12.0889 17.0444 12.9778 17.4888C14.1112 18.0222 14.8889 17.6444 14.8889 16.5555C14.8889 15.5333 15.5334 14.8888 16.5556 14.8888C17.6445 14.8888 18.0223 14.1111 17.4889 12.9777C17.0445 12.0888 17.2 11.6222 18.1112 11.0222C18.4889 10.7777 18.6667 10.4666 18.6667 9.99996C18.6667 9.53329 18.4889 9.22218 18.1112 8.97773C17.2 8.37773 17.0445 7.91107 17.4889 7.02218C18.0223 5.88885 17.6445 5.11107 16.5556 5.11107C15.5334 5.11107 14.8889 4.46662 14.8889 3.4444C14.8889 2.35551 14.1112 1.97773 12.9778 2.51107C12.0889 2.95551 11.6223 2.79996 11.0223 1.88885C10.7778 1.51107 10.4667 1.33329 10 1.33329C9.53338 1.33329 9.22227 1.51107 8.97782 1.88885ZM5.48893 9.37773L6.5556 10.7777L6.62227 9.37773C6.66671 8.35551 6.77782 7.99996 7.00004 7.99996C7.26671 7.99996 7.33338 8.37773 7.33338 9.88885C7.33338 12.2222 7.08893 12.3111 5.73338 10.5111L4.77782 9.2444L4.71115 10.5111C4.66671 11.4444 4.5556 11.7777 4.33338 11.7777C4.06671 11.7777 4.00004 11.4 4.00004 9.88885C4.00004 8.8444 4.08893 7.99996 4.20004 7.99996C4.33338 7.99996 4.88893 8.62218 5.48893 9.37773ZM10.4445 8.33329C10.4445 8.57773 10.2 8.66662 9.5556 8.66662C8.7556 8.66662 8.66671 8.71107 8.66671 9.22218C8.66671 9.71107 8.7556 9.77773 9.5556 9.77773C10.0445 9.77773 10.4445 9.86662 10.4445 9.99996C10.4445 10.1111 10.0445 10.2222 9.5556 10.2222C8.7556 10.2222 8.66671 10.2666 8.66671 10.7777C8.66671 11.2666 8.7556 11.3333 9.5556 11.3333C10.0445 11.3333 10.4445 11.4222 10.4445 11.5555C10.4445 11.6666 9.88893 11.7777 9.22227 11.7777H8.00004V9.88885V7.99996H9.22227C10.1556 7.99996 10.4445 8.06662 10.4445 8.33329ZM11.9112 8.59996C12.2889 10.3555 12.4889 10.8888 12.6445 10.8C12.7334 10.7333 12.9556 10.0666 13.1112 9.33329C13.2667 8.59996 13.5112 7.99996 13.6667 7.99996C13.8 7.99996 14.0445 8.53329 14.2 9.15551C14.3334 9.79996 14.5556 10.4666 14.6445 10.6444C14.8445 10.9555 14.9778 10.6222 15.4223 8.59996C15.5112 8.26662 15.6889 7.99996 15.8667 7.99996C16.0889 7.99996 16.0445 8.42218 15.6667 9.82218C15.0667 12.0666 14.6445 12.3111 14.2 10.6888C14.0223 10.0666 13.8 9.55551 13.6889 9.51107C13.5778 9.46662 13.3334 9.97773 13.1556 10.6222C12.6889 12.3111 12.2667 12.0888 11.6667 9.82218C11.2889 8.42218 11.2445 7.99996 11.4667 7.99996C11.6445 7.99996 11.8223 8.26662 11.9112 8.59996Z" fill="#ECECEC"/>
</svg>
