<svg width="20" height="20" viewBox="0 0 20 20" fill="none" xmlns="http://www.w3.org/2000/svg">
<path d="M7.77648 2.5556C7.5987 3.44448 7.08759 4.44448 5.93203 6.17782C3.86536 9.31115 3.35425 10.5778 3.33203 12.5334C3.33203 14.4 3.7987 15.4889 5.15425 16.8223C6.33203 17.9556 7.66536 18.6667 8.5987 18.6667C9.26536 18.6667 9.33203 18.6 9.33203 18.0223C9.33203 17.6445 9.22092 17.2889 9.08759 17.2223C8.95425 17.1334 8.55425 16.6667 8.1987 16.1778C7.33203 14.9778 7.30981 13.5778 8.13203 12.5112C8.86536 11.5556 9.10981 11.5778 9.10981 12.6667C9.10981 13.4223 9.28759 13.7334 10.5543 15.1556C11.3543 16.0445 12.1543 17.2 12.3543 17.7112C12.8431 18.9778 13.5765 19.0223 14.7098 17.8223C16.9987 15.4889 17.2876 12.1334 15.6209 7.60004C15.332 6.82226 15.1765 6.66671 14.6654 6.66671C14.1543 6.66671 13.9987 6.82226 13.6876 7.64448C13.0876 9.22226 12.7543 9.31115 12.5987 7.97782C12.4209 6.60004 11.4654 4.46671 10.1987 2.66671C9.44314 1.57782 9.15425 1.33337 8.64314 1.33337C8.08759 1.33337 8.02092 1.42226 7.77648 2.5556Z" fill="#ECECEC"/>
</svg>
