<svg width="200" height="100" viewBox="0 0 200 100" fill="none" xmlns="http://www.w3.org/2000/svg">
<path d="M62.8835 81.466C61.0658 81.466 59.3799 81.0555 57.8261 80.2346C56.2722 79.3844 55.0261 78.1677 54.088 76.5845C53.1498 75.0013 52.6807 73.0956 52.6807 70.8673C52.6807 68.8737 53.0032 67.0413 53.6482 65.3701C54.3225 63.699 55.2607 62.2477 56.4627 61.0163C57.6648 59.785 59.0574 58.8321 60.6406 58.1578C62.2238 57.4541 63.9243 57.1023 65.7421 57.1023C67.7064 57.1023 69.3922 57.4688 70.7995 58.2018C72.2068 58.9347 73.2476 60.0781 73.9219 61.632C74.6256 63.1566 74.8748 65.1356 74.6695 67.569C74.5229 70.3543 73.9512 72.8024 72.9544 74.9133C71.9576 76.9949 70.6089 78.6074 68.9084 79.7508C67.2373 80.8943 65.229 81.466 62.8835 81.466ZM64.9944 75.7929C66.3431 75.7929 67.5305 75.4703 68.5566 74.8253C69.6121 74.151 70.433 73.2421 71.0194 72.0987C71.6351 70.926 71.9429 69.5627 71.9429 68.0088C71.9429 66.3963 71.4592 65.1209 70.4916 64.1827C69.5535 63.2445 68.2341 62.7754 66.5337 62.7754C65.2143 62.7754 64.0269 63.1126 62.9715 63.7869C61.916 64.4319 61.0804 65.3408 60.4647 66.5135C59.8784 67.657 59.5852 69.0056 59.5852 70.5595C59.5852 72.172 60.0543 73.4474 60.9925 74.3856C61.96 75.3238 63.294 75.7929 64.9944 75.7929ZM69.7001 81.1142L70.6236 76.4085L72.1628 69.3721L73.0863 62.3357L74.0538 57.4541H80.9144L76.2088 81.1142H69.7001Z" fill="white"/>
<path d="M97.1075 81.466C95.1724 81.466 93.5013 81.0555 92.094 80.2346C90.6867 79.3844 89.6899 78.153 89.1035 76.5405C88.5171 74.928 88.4585 72.9343 88.9276 70.5595L91.5223 57.4541H98.3828L95.8761 70.1197C95.5243 71.8495 95.6562 73.1835 96.2719 74.1217C96.9169 75.0599 98.0456 75.529 99.6582 75.529C101.359 75.529 102.781 75.0306 103.924 74.0337C105.097 73.0369 105.874 71.5124 106.255 69.4601L108.674 57.4541H115.534L110.829 81.1142H104.32L105.639 74.4295L106.607 76.4525C105.493 78.1823 104.1 79.4577 102.429 80.2786C100.758 81.0702 98.9838 81.466 97.1075 81.466Z" fill="white"/>
<path d="M147.177 57.1023C149.171 57.1023 150.857 57.5274 152.235 58.3777C153.613 59.1986 154.595 60.4153 155.181 62.0278C155.767 63.6403 155.811 65.634 155.313 68.0088L152.718 81.1142H145.858L148.365 68.4925C148.746 66.7334 148.628 65.3848 148.013 64.4466C147.397 63.5084 146.327 63.0393 144.802 63.0393C143.19 63.0393 141.856 63.5231 140.8 64.4906C139.745 65.4288 139.012 66.924 138.601 68.9763L136.183 81.1142H129.322L131.829 68.4925C132.181 66.7334 132.049 65.3848 131.433 64.4466C130.847 63.5084 129.791 63.0393 128.267 63.0393C126.654 63.0393 125.32 63.5231 124.265 64.4906C123.209 65.4288 122.462 66.9533 122.022 69.0643L119.647 81.1142H112.787L117.492 57.4541H124.001L122.77 63.4791L121.714 62.1158C122.799 60.4153 124.147 59.1546 125.76 58.3337C127.372 57.5128 129.088 57.1023 130.905 57.1023C132.371 57.1023 133.691 57.3662 134.863 57.8939C136.036 58.4216 136.989 59.2132 137.722 60.2687C138.484 61.2949 138.924 62.5849 139.041 64.1388L136.403 63.4791C137.575 61.3975 139.071 59.8143 140.888 58.7295C142.735 57.6447 144.832 57.1023 147.177 57.1023Z" fill="white"/>
<path d="M166.958 81.466C164.553 81.466 162.457 81.0262 160.669 80.1466C158.88 79.2671 157.488 78.0357 156.491 76.4525C155.523 74.8693 155.04 73.0076 155.04 70.8673C155.04 68.2287 155.655 65.8832 156.887 63.8309C158.118 61.7493 159.804 60.1075 161.944 58.9054C164.114 57.7033 166.576 57.1023 169.332 57.1023C171.766 57.1023 173.862 57.5421 175.621 58.4216C177.41 59.3012 178.788 60.5326 179.755 62.1158C180.752 63.6697 181.25 65.5314 181.25 67.7009C181.25 70.3103 180.635 72.6558 179.403 74.7374C178.172 76.819 176.486 78.4608 174.346 79.6629C172.206 80.865 169.743 81.466 166.958 81.466ZM167.397 75.8368C168.746 75.8368 169.933 75.5143 170.959 74.8693C172.015 74.195 172.836 73.2715 173.422 72.0987C174.009 70.926 174.302 69.5627 174.302 68.0088C174.302 66.4256 173.833 65.1502 172.895 64.1827C171.956 63.2152 170.637 62.7315 168.937 62.7315C167.588 62.7315 166.386 63.0686 165.33 63.743C164.304 64.388 163.483 65.2968 162.868 66.4696C162.281 67.6423 161.988 69.0056 161.988 70.5595C161.988 72.172 162.457 73.462 163.395 74.4295C164.333 75.3677 165.667 75.8368 167.397 75.8368Z" fill="white"/>
<path fill-rule="evenodd" clip-rule="evenodd" d="M83.7462 53.1211L78.1627 81.1142H85.0232L90.6067 53.1211H83.7462Z" fill="white"/>
<path d="M115.324 52.1485C113.506 52.1485 111.82 51.7381 110.266 50.9171C108.713 50.0669 107.467 48.8502 106.528 47.267C105.59 45.6838 105.121 43.7781 105.121 41.5499C105.121 39.5562 105.444 37.7238 106.089 36.0527C106.763 34.3815 107.701 32.9302 108.903 31.6989C110.105 30.4675 111.498 29.5146 113.081 28.8403C114.664 28.1367 116.365 27.7848 118.182 27.7848C120.147 27.7848 121.833 28.1513 123.24 28.8843C124.647 29.6173 125.688 30.7607 126.362 32.3146C127.066 33.8391 127.315 35.8181 127.11 38.2516C126.963 41.0368 126.392 43.4849 125.395 45.5958C124.398 47.6774 123.049 49.29 121.349 50.4334C119.678 51.5768 117.669 52.1485 115.324 52.1485ZM117.435 46.4754C118.784 46.4754 119.971 46.1529 120.997 45.5079C122.053 44.8336 122.873 43.9247 123.46 42.7813C124.075 41.6085 124.383 40.2452 124.383 38.6913C124.383 37.0788 123.9 35.8035 122.932 34.8653C121.994 33.9271 120.675 33.458 118.974 33.458C117.655 33.458 116.467 33.7951 115.412 34.4695C114.356 35.1145 113.521 36.0233 112.905 37.1961C112.319 38.3395 112.026 39.6882 112.026 41.242C112.026 42.8546 112.495 44.1299 113.433 45.0681C114.4 46.0063 115.734 46.4754 117.435 46.4754ZM122.14 51.7967L123.064 47.0911L124.603 40.0546L125.527 33.0182L126.494 28.1367H133.355L128.649 51.7967H122.14Z" fill="white"/>
<path d="M130.603 51.7967L135.309 28.1367H141.817L140.454 34.8653L139.838 32.9302C140.894 31.0245 142.272 29.6906 143.972 28.9283C145.673 28.166 147.71 27.7848 150.085 27.7848L148.854 34.1176C148.561 34.0883 148.282 34.0737 148.018 34.0737C147.784 34.0443 147.535 34.0297 147.271 34.0297C145.248 34.0297 143.591 34.5281 142.301 35.5249C141.04 36.5218 140.19 38.1343 139.75 40.3625L137.464 51.7967H130.603Z" fill="white"/>
<path d="M155.42 52.1485C153.72 52.1485 152.269 51.8114 151.066 51.137C149.864 50.4334 149 49.4366 148.472 48.1465C147.973 46.8272 147.9 45.2733 148.252 43.4849L152.342 22.9033H159.202L155.112 43.4409C154.937 44.4378 155.039 45.2294 155.42 45.8157C155.801 46.4021 156.505 46.6953 157.531 46.6953C158 46.6953 158.469 46.622 158.939 46.4754C159.437 46.3288 159.891 46.1236 160.302 45.8597L161.313 50.7412C160.463 51.269 159.525 51.6354 158.499 51.8407C157.473 52.0459 156.446 52.1485 155.42 52.1485ZM146.493 33.9417L147.548 28.6644H163.952L162.896 33.9417H146.493Z" fill="white"/>
<path d="M70.9711 27.7861C72.9941 27.7861 74.7092 28.2113 76.1165 29.0615C77.5238 29.8824 78.5206 31.0991 79.107 32.7116C79.6933 34.3242 79.752 36.3178 79.2829 38.6926L76.6442 51.798H69.7837L72.3344 39.1324C72.6862 37.4026 72.5396 36.0686 71.8946 35.1304C71.2789 34.1922 70.1355 33.7231 68.4643 33.7231C66.7346 33.7231 65.2833 34.2215 64.1105 35.2184C62.9671 36.2152 62.1755 37.7398 61.7358 39.7921L59.361 51.798H52.5004L57.206 28.138H63.7148L62.3514 34.8226L61.3839 32.7996C62.5273 31.0698 63.9346 29.8091 65.6058 29.0175C67.3063 28.1966 69.0947 27.7861 70.9711 27.7861Z" fill="white"/>
<path d="M91.1727 52.1498C88.7099 52.1498 86.5697 51.71 84.7519 50.8305C82.9635 49.9509 81.5709 48.7195 80.574 47.1363C79.5772 45.5531 79.0788 43.6914 79.0788 41.5512C79.0788 38.9125 79.6652 36.567 80.8379 34.5147C82.04 32.4331 83.6818 30.7913 85.7634 29.5892C87.8743 28.3872 90.2931 27.7861 93.0197 27.7861C95.3359 27.7861 97.3295 28.2259 99.0007 29.1055C100.672 29.9557 101.962 31.1578 102.871 32.7116C103.809 34.2362 104.278 36.0686 104.278 38.2089C104.278 38.8246 104.234 39.4402 104.146 40.0559C104.087 40.6716 104 41.258 103.882 41.815H84.3121L85.0158 37.8131H100.672L97.8573 39.0444C98.0918 37.7251 98.0185 36.6257 97.6374 35.7461C97.2562 34.8372 96.6406 34.1483 95.7903 33.6792C94.9401 33.1807 93.9139 32.9315 92.7119 32.9315C91.2166 32.9315 89.9413 33.298 88.8858 34.031C87.8597 34.7346 87.0827 35.7168 86.555 36.9775C86.0273 38.2382 85.7634 39.6601 85.7634 41.2433C85.7634 43.0611 86.2618 44.4244 87.2586 45.3333C88.2848 46.2128 89.824 46.6526 91.8763 46.6526C93.0784 46.6526 94.2365 46.462 95.3505 46.0809C96.4647 45.6997 97.4175 45.1573 98.2091 44.4537L101.068 48.9834C99.6897 50.0682 98.1358 50.8745 96.406 51.4022C94.7055 51.9006 92.9611 52.1498 91.1727 52.1498Z" fill="white"/>
<path fill-rule="evenodd" clip-rule="evenodd" d="M22.0098 51.798L28.1666 21.0136H35.335L30.3216 45.9929H42.8685L41.5665 51.798H22.0098ZM44.5703 51.798H43.7135L44.868 45.9929H45.7577L44.5703 51.798Z" fill="white"/>
<path fill-rule="evenodd" clip-rule="evenodd" d="M44.868 45.9929L43.7135 51.798H50.53L55.2356 28.138H48.4191L44.868 45.9929Z" fill="white"/>
<path d="M48.5947 26.018L50.2873 20.0288H57.0577L55.4953 26.018H48.5947Z" fill="white"/>
<path d="M18.75 81.4756L33.8146 55.4648L37.1743 61.2089L35.0067 64.7854L33.8146 62.9429L23.1935 81.4756H18.75Z" fill="white"/>
<path d="M27.3119 81.4756L42.3764 55.4648H46.7116L40.3173 66.6278L44.544 73.9975L40.3173 74.1059L38.1497 70.421L33.8146 77.7908H46.7116L48.7708 81.4756H27.3119Z" fill="white"/>
</svg>
