<svg viewBox="0 0 112 45" fill="none" xmlns="http://www.w3.org/2000/svg">
    <mask id="path-1-outside-1_1441_751" maskUnits="userSpaceOnUse" x="22.2227" y="23.5939" width="90" height="21"
          fill="black">
        <rect fill="white" x="22.2227" y="23.5939" width="90" height="21"/>
        <path d="M30.2055 43.9933C28.9615 43.9933 27.8077 43.7124 26.7442 43.1505C25.6807 42.5686 24.8279 41.7359 24.1858 40.6523C23.5437 39.5688 23.2227 38.2645 23.2227 36.7395C23.2227 35.375 23.4434 34.1209 23.8848 32.9772C24.3463 31.8334 24.9884 30.8402 25.8111 29.9974C26.6338 29.1547 27.587 28.5025 28.6705 28.041C29.7541 27.5594 30.9179 27.3186 32.162 27.3186C33.5064 27.3186 34.6601 27.5695 35.6233 28.0711C36.5865 28.5728 37.2988 29.3553 37.7603 30.4188C38.2419 31.4622 38.4124 32.8167 38.272 34.4821C38.1716 36.3884 37.7804 38.0639 37.0981 39.5086C36.4159 40.9333 35.4929 42.0369 34.3291 42.8194C33.1853 43.602 31.8108 43.9933 30.2055 43.9933ZM31.6503 40.1106C32.5733 40.1106 33.386 39.8898 34.0883 39.4484C34.8106 38.9869 35.3725 38.3648 35.7738 37.5823C36.1952 36.7796 36.4059 35.8466 36.4059 34.7831C36.4059 33.6795 36.0748 32.8066 35.4126 32.1645C34.7705 31.5224 33.8675 31.2014 32.7037 31.2014C31.8008 31.2014 30.9881 31.4321 30.2657 31.8936C29.5434 32.3351 28.9715 32.9571 28.5501 33.7598C28.1488 34.5423 27.9481 35.4653 27.9481 36.5288C27.9481 37.6324 28.2692 38.5053 28.9113 39.1474C29.5735 39.7895 30.4865 40.1106 31.6503 40.1106ZM34.8708 43.7525L35.5029 40.5319L36.5564 35.7162L37.1884 30.9004L37.8506 27.5594H42.546L39.3254 43.7525H34.8708Z"/>
        <path d="M53.6286 43.9933C52.3043 43.9933 51.1605 43.7124 50.1974 43.1505C49.2342 42.5686 48.552 41.7259 48.1507 40.6222C47.7494 39.5186 47.7092 38.1542 48.0303 36.5288L49.8061 27.5594H54.5015L52.7859 36.2278C52.5451 37.4117 52.6354 38.3247 53.0568 38.9668C53.4982 39.6089 54.2707 39.93 55.3744 39.93C56.5382 39.93 57.5114 39.5889 58.2939 38.9066C59.0966 38.2244 59.6283 37.181 59.8892 35.7764L61.5446 27.5594H66.24L63.0194 43.7525H58.5648L59.4678 39.1775L60.1299 40.562C59.3674 41.7459 58.4143 42.6188 57.2706 43.1806C56.1268 43.7224 54.9128 43.9933 53.6286 43.9933Z"/>
        <path d="M87.8966 27.3186C89.2611 27.3186 90.4149 27.6096 91.358 28.1915C92.3011 28.7533 92.9733 29.5861 93.3746 30.6897C93.7759 31.7933 93.806 33.1578 93.4649 34.7831L91.6891 43.7525H86.9937L88.7093 35.1142C88.9702 33.9102 88.8899 32.9872 88.4685 32.3451C88.0471 31.703 87.3147 31.382 86.2713 31.382C85.1677 31.382 84.2547 31.713 83.5323 32.3752C82.81 33.0173 82.3083 34.0407 82.0274 35.4453L80.372 43.7525H75.6766L77.3922 35.1142C77.633 33.9102 77.5427 32.9872 77.1213 32.3451C76.72 31.703 75.9976 31.382 74.9542 31.382C73.8506 31.382 72.9376 31.713 72.2152 32.3752C71.4929 33.0173 70.9812 34.0607 70.6802 35.5055L69.0549 43.7525H64.3595L67.5801 27.5594H72.0347L71.1919 31.6829L70.4695 30.7499C71.212 29.5861 72.135 28.7232 73.2386 28.1614C74.3422 27.5996 75.5161 27.3186 76.7601 27.3186C77.7634 27.3186 78.6664 27.4992 79.469 27.8604C80.2717 28.2216 80.9238 28.7634 81.4254 29.4857C81.9471 30.188 82.2481 31.0709 82.3284 32.1344L80.5225 31.6829C81.3251 30.2583 82.3485 29.1747 83.5925 28.4323C84.8567 27.6899 86.2914 27.3186 87.8966 27.3186Z"/>
        <path d="M101.434 43.9933C99.7891 43.9933 98.3544 43.6923 97.1303 43.0903C95.9063 42.4884 94.9532 41.6456 94.271 40.562C93.6088 39.4785 93.2777 38.2043 93.2777 36.7395C93.2777 34.9336 93.6991 33.3283 94.5419 31.9237C95.3846 30.4991 96.5384 29.3754 98.0032 28.5527C99.4881 27.73 101.174 27.3186 103.06 27.3186C104.725 27.3186 106.16 27.6196 107.364 28.2216C108.588 28.8236 109.531 29.6663 110.193 30.7499C110.875 31.8134 111.217 33.0875 111.217 34.5724C111.217 36.3583 110.795 37.9635 109.952 39.3882C109.11 40.8129 107.956 41.9366 106.491 42.7592C105.026 43.5819 103.341 43.9933 101.434 43.9933ZM101.735 40.1407C102.658 40.1407 103.471 39.9199 104.173 39.4785C104.896 39.017 105.458 38.3849 105.859 37.5823C106.26 36.7796 106.461 35.8466 106.461 34.7831C106.461 33.6996 106.14 32.8267 105.498 32.1645C104.856 31.5024 103.953 31.1713 102.789 31.1713C101.866 31.1713 101.043 31.402 100.321 31.8635C99.6185 32.305 99.0567 32.927 98.6353 33.7297C98.234 34.5323 98.0333 35.4653 98.0333 36.5288C98.0333 37.6324 98.3544 38.5153 98.9965 39.1775C99.6386 39.8196 100.552 40.1407 101.735 40.1407Z"/>
        <path fill-rule="evenodd" clip-rule="evenodd"
              d="M44.4841 24.5939L40.6627 43.7525H45.3581L49.1795 24.5939H44.4841Z"/>
    </mask>
    <path d="M30.2055 43.9933C28.9615 43.9933 27.8077 43.7124 26.7442 43.1505C25.6807 42.5686 24.8279 41.7359 24.1858 40.6523C23.5437 39.5688 23.2227 38.2645 23.2227 36.7395C23.2227 35.375 23.4434 34.1209 23.8848 32.9772C24.3463 31.8334 24.9884 30.8402 25.8111 29.9974C26.6338 29.1547 27.587 28.5025 28.6705 28.041C29.7541 27.5594 30.9179 27.3186 32.162 27.3186C33.5064 27.3186 34.6601 27.5695 35.6233 28.0711C36.5865 28.5728 37.2988 29.3553 37.7603 30.4188C38.2419 31.4622 38.4124 32.8167 38.272 34.4821C38.1716 36.3884 37.7804 38.0639 37.0981 39.5086C36.4159 40.9333 35.4929 42.0369 34.3291 42.8194C33.1853 43.602 31.8108 43.9933 30.2055 43.9933ZM31.6503 40.1106C32.5733 40.1106 33.386 39.8898 34.0883 39.4484C34.8106 38.9869 35.3725 38.3648 35.7738 37.5823C36.1952 36.7796 36.4059 35.8466 36.4059 34.7831C36.4059 33.6795 36.0748 32.8066 35.4126 32.1645C34.7705 31.5224 33.8675 31.2014 32.7037 31.2014C31.8008 31.2014 30.9881 31.4321 30.2657 31.8936C29.5434 32.3351 28.9715 32.9571 28.5501 33.7598C28.1488 34.5423 27.9481 35.4653 27.9481 36.5288C27.9481 37.6324 28.2692 38.5053 28.9113 39.1474C29.5735 39.7895 30.4865 40.1106 31.6503 40.1106ZM34.8708 43.7525L35.5029 40.5319L36.5564 35.7162L37.1884 30.9004L37.8506 27.5594H42.546L39.3254 43.7525H34.8708Z"
          fill="white"/>
    <path d="M53.6286 43.9933C52.3043 43.9933 51.1605 43.7124 50.1974 43.1505C49.2342 42.5686 48.552 41.7259 48.1507 40.6222C47.7494 39.5186 47.7092 38.1542 48.0303 36.5288L49.8061 27.5594H54.5015L52.7859 36.2278C52.5451 37.4117 52.6354 38.3247 53.0568 38.9668C53.4982 39.6089 54.2707 39.93 55.3744 39.93C56.5382 39.93 57.5114 39.5889 58.2939 38.9066C59.0966 38.2244 59.6283 37.181 59.8892 35.7764L61.5446 27.5594H66.24L63.0194 43.7525H58.5648L59.4678 39.1775L60.1299 40.562C59.3674 41.7459 58.4143 42.6188 57.2706 43.1806C56.1268 43.7224 54.9128 43.9933 53.6286 43.9933Z"
          fill="white"/>
    <path d="M87.8966 27.3186C89.2611 27.3186 90.4149 27.6096 91.358 28.1915C92.3011 28.7533 92.9733 29.5861 93.3746 30.6897C93.7759 31.7933 93.806 33.1578 93.4649 34.7831L91.6891 43.7525H86.9937L88.7093 35.1142C88.9702 33.9102 88.8899 32.9872 88.4685 32.3451C88.0471 31.703 87.3147 31.382 86.2713 31.382C85.1677 31.382 84.2547 31.713 83.5323 32.3752C82.81 33.0173 82.3083 34.0407 82.0274 35.4453L80.372 43.7525H75.6766L77.3922 35.1142C77.633 33.9102 77.5427 32.9872 77.1213 32.3451C76.72 31.703 75.9976 31.382 74.9542 31.382C73.8506 31.382 72.9376 31.713 72.2152 32.3752C71.4929 33.0173 70.9812 34.0607 70.6802 35.5055L69.0549 43.7525H64.3595L67.5801 27.5594H72.0347L71.1919 31.6829L70.4695 30.7499C71.212 29.5861 72.135 28.7232 73.2386 28.1614C74.3422 27.5996 75.5161 27.3186 76.7601 27.3186C77.7634 27.3186 78.6664 27.4992 79.469 27.8604C80.2717 28.2216 80.9238 28.7634 81.4254 29.4857C81.9471 30.188 82.2481 31.0709 82.3284 32.1344L80.5225 31.6829C81.3251 30.2583 82.3485 29.1747 83.5925 28.4323C84.8567 27.6899 86.2914 27.3186 87.8966 27.3186Z"
          fill="white"/>
    <path d="M101.434 43.9933C99.7891 43.9933 98.3544 43.6923 97.1303 43.0903C95.9063 42.4884 94.9532 41.6456 94.271 40.562C93.6088 39.4785 93.2777 38.2043 93.2777 36.7395C93.2777 34.9336 93.6991 33.3283 94.5419 31.9237C95.3846 30.4991 96.5384 29.3754 98.0032 28.5527C99.4881 27.73 101.174 27.3186 103.06 27.3186C104.725 27.3186 106.16 27.6196 107.364 28.2216C108.588 28.8236 109.531 29.6663 110.193 30.7499C110.875 31.8134 111.217 33.0875 111.217 34.5724C111.217 36.3583 110.795 37.9635 109.952 39.3882C109.11 40.8129 107.956 41.9366 106.491 42.7592C105.026 43.5819 103.341 43.9933 101.434 43.9933ZM101.735 40.1407C102.658 40.1407 103.471 39.9199 104.173 39.4785C104.896 39.017 105.458 38.3849 105.859 37.5823C106.26 36.7796 106.461 35.8466 106.461 34.7831C106.461 33.6996 106.14 32.8267 105.498 32.1645C104.856 31.5024 103.953 31.1713 102.789 31.1713C101.866 31.1713 101.043 31.402 100.321 31.8635C99.6185 32.305 99.0567 32.927 98.6353 33.7297C98.234 34.5323 98.0333 35.4653 98.0333 36.5288C98.0333 37.6324 98.3544 38.5153 98.9965 39.1775C99.6386 39.8196 100.552 40.1407 101.735 40.1407Z"
          fill="white"/>
    <path fill-rule="evenodd" clip-rule="evenodd" d="M44.4841 24.5939L40.6627 43.7525H45.3581L49.1795 24.5939H44.4841Z"
          fill="white"/>
    <path d="M30.2055 43.9933C28.9615 43.9933 27.8077 43.7124 26.7442 43.1505C25.6807 42.5686 24.8279 41.7359 24.1858 40.6523C23.5437 39.5688 23.2227 38.2645 23.2227 36.7395C23.2227 35.375 23.4434 34.1209 23.8848 32.9772C24.3463 31.8334 24.9884 30.8402 25.8111 29.9974C26.6338 29.1547 27.587 28.5025 28.6705 28.041C29.7541 27.5594 30.9179 27.3186 32.162 27.3186C33.5064 27.3186 34.6601 27.5695 35.6233 28.0711C36.5865 28.5728 37.2988 29.3553 37.7603 30.4188C38.2419 31.4622 38.4124 32.8167 38.272 34.4821C38.1716 36.3884 37.7804 38.0639 37.0981 39.5086C36.4159 40.9333 35.4929 42.0369 34.3291 42.8194C33.1853 43.602 31.8108 43.9933 30.2055 43.9933ZM31.6503 40.1106C32.5733 40.1106 33.386 39.8898 34.0883 39.4484C34.8106 38.9869 35.3725 38.3648 35.7738 37.5823C36.1952 36.7796 36.4059 35.8466 36.4059 34.7831C36.4059 33.6795 36.0748 32.8066 35.4126 32.1645C34.7705 31.5224 33.8675 31.2014 32.7037 31.2014C31.8008 31.2014 30.9881 31.4321 30.2657 31.8936C29.5434 32.3351 28.9715 32.9571 28.5501 33.7598C28.1488 34.5423 27.9481 35.4653 27.9481 36.5288C27.9481 37.6324 28.2692 38.5053 28.9113 39.1474C29.5735 39.7895 30.4865 40.1106 31.6503 40.1106ZM34.8708 43.7525L35.5029 40.5319L36.5564 35.7162L37.1884 30.9004L37.8506 27.5594H42.546L39.3254 43.7525H34.8708Z"
          stroke="#202126" stroke-width="0.712879" mask="url(#path-1-outside-1_1441_751)"/>
    <path d="M53.6286 43.9933C52.3043 43.9933 51.1605 43.7124 50.1974 43.1505C49.2342 42.5686 48.552 41.7259 48.1507 40.6222C47.7494 39.5186 47.7092 38.1542 48.0303 36.5288L49.8061 27.5594H54.5015L52.7859 36.2278C52.5451 37.4117 52.6354 38.3247 53.0568 38.9668C53.4982 39.6089 54.2707 39.93 55.3744 39.93C56.5382 39.93 57.5114 39.5889 58.2939 38.9066C59.0966 38.2244 59.6283 37.181 59.8892 35.7764L61.5446 27.5594H66.24L63.0194 43.7525H58.5648L59.4678 39.1775L60.1299 40.562C59.3674 41.7459 58.4143 42.6188 57.2706 43.1806C56.1268 43.7224 54.9128 43.9933 53.6286 43.9933Z"
          stroke="#202126" stroke-width="0.712879" mask="url(#path-1-outside-1_1441_751)"/>
    <path d="M87.8966 27.3186C89.2611 27.3186 90.4149 27.6096 91.358 28.1915C92.3011 28.7533 92.9733 29.5861 93.3746 30.6897C93.7759 31.7933 93.806 33.1578 93.4649 34.7831L91.6891 43.7525H86.9937L88.7093 35.1142C88.9702 33.9102 88.8899 32.9872 88.4685 32.3451C88.0471 31.703 87.3147 31.382 86.2713 31.382C85.1677 31.382 84.2547 31.713 83.5323 32.3752C82.81 33.0173 82.3083 34.0407 82.0274 35.4453L80.372 43.7525H75.6766L77.3922 35.1142C77.633 33.9102 77.5427 32.9872 77.1213 32.3451C76.72 31.703 75.9976 31.382 74.9542 31.382C73.8506 31.382 72.9376 31.713 72.2152 32.3752C71.4929 33.0173 70.9812 34.0607 70.6802 35.5055L69.0549 43.7525H64.3595L67.5801 27.5594H72.0347L71.1919 31.6829L70.4695 30.7499C71.212 29.5861 72.135 28.7232 73.2386 28.1614C74.3422 27.5996 75.5161 27.3186 76.7601 27.3186C77.7634 27.3186 78.6664 27.4992 79.469 27.8604C80.2717 28.2216 80.9238 28.7634 81.4254 29.4857C81.9471 30.188 82.2481 31.0709 82.3284 32.1344L80.5225 31.6829C81.3251 30.2583 82.3485 29.1747 83.5925 28.4323C84.8567 27.6899 86.2914 27.3186 87.8966 27.3186Z"
          stroke="#202126" stroke-width="0.712879" mask="url(#path-1-outside-1_1441_751)"/>
    <path d="M101.434 43.9933C99.7891 43.9933 98.3544 43.6923 97.1303 43.0903C95.9063 42.4884 94.9532 41.6456 94.271 40.562C93.6088 39.4785 93.2777 38.2043 93.2777 36.7395C93.2777 34.9336 93.6991 33.3283 94.5419 31.9237C95.3846 30.4991 96.5384 29.3754 98.0032 28.5527C99.4881 27.73 101.174 27.3186 103.06 27.3186C104.725 27.3186 106.16 27.6196 107.364 28.2216C108.588 28.8236 109.531 29.6663 110.193 30.7499C110.875 31.8134 111.217 33.0875 111.217 34.5724C111.217 36.3583 110.795 37.9635 109.952 39.3882C109.11 40.8129 107.956 41.9366 106.491 42.7592C105.026 43.5819 103.341 43.9933 101.434 43.9933ZM101.735 40.1407C102.658 40.1407 103.471 39.9199 104.173 39.4785C104.896 39.017 105.458 38.3849 105.859 37.5823C106.26 36.7796 106.461 35.8466 106.461 34.7831C106.461 33.6996 106.14 32.8267 105.498 32.1645C104.856 31.5024 103.953 31.1713 102.789 31.1713C101.866 31.1713 101.043 31.402 100.321 31.8635C99.6185 32.305 99.0567 32.927 98.6353 33.7297C98.234 34.5323 98.0333 35.4653 98.0333 36.5288C98.0333 37.6324 98.3544 38.5153 98.9965 39.1775C99.6386 39.8196 100.552 40.1407 101.735 40.1407Z"
          stroke="#202126" stroke-width="0.712879" mask="url(#path-1-outside-1_1441_751)"/>
    <path fill-rule="evenodd" clip-rule="evenodd" d="M44.4841 24.5939L40.6627 43.7525H45.3581L49.1795 24.5939H44.4841Z"
          stroke="#202126" stroke-width="0.712879" mask="url(#path-1-outside-1_1441_751)"/>
    <path d="M66.0962 23.9284C64.8521 23.9284 63.6983 23.6475 62.6348 23.0857C61.5713 22.5038 60.7185 21.671 60.0764 20.5875C59.4343 19.5039 59.1133 18.1997 59.1133 16.6747C59.1133 15.3102 59.334 14.0561 59.7755 12.9123C60.237 11.7686 60.8791 10.7753 61.7018 9.93257C62.5245 9.08981 63.4776 8.43767 64.5611 7.97616C65.6447 7.49458 66.8085 7.25379 68.0526 7.25379C69.397 7.25379 70.5508 7.50461 71.5139 8.00626C72.4771 8.5079 73.1894 9.29046 73.6509 10.354C74.1325 11.3974 74.3031 12.7518 74.1626 14.4173C74.0623 16.3235 73.671 17.999 72.9888 19.4437C72.3065 20.8684 71.3835 21.972 70.2197 22.7546C69.0759 23.5372 67.7014 23.9284 66.0962 23.9284ZM67.5409 20.0457C68.4639 20.0457 69.2766 19.825 69.9789 19.3835C70.7013 18.922 71.2631 18.3 71.6644 17.5174C72.0858 16.7148 72.2965 15.7817 72.2965 14.7183C72.2965 13.6146 71.9654 12.7418 71.3032 12.0997C70.6611 11.4576 69.7582 11.1365 68.5944 11.1365C67.6914 11.1365 66.8787 11.3673 66.1564 11.8288C65.434 12.2702 64.8621 12.8923 64.4407 13.6949C64.0394 14.4775 63.8388 15.4005 63.8388 16.464C63.8388 17.5676 64.1598 18.4405 64.8019 19.0826C65.4641 19.7247 66.3771 20.0457 67.5409 20.0457ZM70.7615 23.6876L71.3935 20.4671L72.447 15.6513L73.079 10.8355L73.7412 7.49458H78.4366L75.2161 23.6876H70.7615Z"
          fill="white"/>
    <path d="M76.5533 23.6876L79.7739 7.49458H84.2285L83.2954 12.0997L82.874 10.7753C83.5964 9.47106 84.5395 8.55806 85.7033 8.03635C86.8671 7.51465 88.2617 7.25379 89.887 7.25379L89.0443 11.588C88.8436 11.5679 88.653 11.5579 88.4724 11.5579C88.3119 11.5378 88.1413 11.5278 87.9607 11.5278C86.5762 11.5278 85.4425 11.8689 84.5596 12.5512C83.6967 13.2334 83.1148 14.337 82.8138 15.862L81.2487 23.6876H76.5533Z"
          fill="white"/>
    <path d="M93.5384 23.9284C92.3745 23.9284 91.3813 23.6977 90.5586 23.2362C89.7359 22.7546 89.144 22.0724 88.7828 21.1895C88.4417 20.2865 88.3915 19.223 88.6323 17.999L91.4315 3.91284H96.1268L93.3277 17.9689C93.2073 18.6511 93.2775 19.1929 93.5384 19.5942C93.7992 19.9955 94.2808 20.1962 94.9831 20.1962C95.3041 20.1962 95.6252 20.146 95.9463 20.0457C96.2874 19.9454 96.5984 19.8049 96.8793 19.6243L97.5716 22.9653C96.9897 23.3265 96.3476 23.5773 95.6453 23.7177C94.943 23.8582 94.2407 23.9284 93.5384 23.9284ZM87.4283 11.4676L88.1507 7.85576H99.3775L98.6551 11.4676H87.4283Z"
          fill="white"/>
    <path d="M35.7399 7.25414C37.1244 7.25414 38.2983 7.54509 39.2614 8.127C40.2246 8.68884 40.9068 9.52157 41.3081 10.6252C41.7095 11.7288 41.7496 13.0933 41.4285 14.7186L39.6226 23.688H34.9272L36.673 15.0196C36.9137 13.8357 36.8134 12.9227 36.372 12.2806C35.9506 11.6385 35.168 11.3175 34.0243 11.3175C32.8404 11.3175 31.8471 11.6586 31.0445 12.3408C30.2619 13.023 29.7202 14.0665 29.4192 15.4711L27.7939 23.688H23.0985L26.319 7.49493H30.7736L29.8406 12.0699L29.1784 10.6854C29.961 9.5015 30.9241 8.63868 32.0679 8.0969C33.2317 7.53506 34.4557 7.25414 35.7399 7.25414Z"
          fill="white"/>
    <path d="M49.566 23.9288C47.8805 23.9288 46.4157 23.6278 45.1716 23.0258C43.9476 22.4239 42.9945 21.5811 42.3122 20.4975C41.63 19.414 41.2889 18.1398 41.2889 16.675C41.2889 14.8691 41.6902 13.2638 42.4928 11.8592C43.3155 10.4346 44.4392 9.31088 45.8639 8.48818C47.3086 7.66549 48.964 7.25414 50.8301 7.25414C52.4153 7.25414 53.7798 7.55513 54.9235 8.1571C56.0673 8.73901 56.9502 9.5617 57.5722 10.6252C58.2143 11.6686 58.5354 12.9227 58.5354 14.3875C58.5354 14.8089 58.5053 15.2303 58.4451 15.6517C58.405 16.073 58.3448 16.4744 58.2645 16.8556H44.8706L45.3522 14.1166H56.0673L54.141 14.9594C54.3015 14.0564 54.2514 13.304 53.9905 12.702C53.7296 12.08 53.3083 11.6084 52.7263 11.2874C52.1444 10.9462 51.4421 10.7757 50.6194 10.7757C49.5961 10.7757 48.7232 11.0265 48.0009 11.5281C47.2986 12.0097 46.7668 12.6819 46.4056 13.5448C46.0444 14.4076 45.8639 15.3808 45.8639 16.4643C45.8639 17.7084 46.205 18.6415 46.8872 19.2635C47.5895 19.8655 48.643 20.1665 50.0476 20.1665C50.8703 20.1665 51.6629 20.036 52.4254 19.7752C53.1879 19.5143 53.84 19.1431 54.3818 18.6615L56.3382 21.7617C55.3951 22.5041 54.3316 23.0559 53.1477 23.4171C51.9839 23.7582 50.79 23.9288 49.566 23.9288Z"
          fill="white"/>
    <path fill-rule="evenodd" clip-rule="evenodd"
          d="M2.23047 23.688L6.44428 2.61895H11.3504L7.91911 19.715H16.5063L15.6152 23.688H2.23047ZM17.6711 23.688H17.0846L17.8748 19.715H18.4837L17.6711 23.688Z"
          fill="white"/>
    <path fill-rule="evenodd" clip-rule="evenodd"
          d="M17.8748 19.715L17.0846 23.688H21.7499L24.9705 7.49493H20.3052L17.8748 19.715Z" fill="white"/>
    <path d="M20.4258 6.04425L21.5842 1.94519H26.2179L25.1486 6.04425H20.4258Z" fill="white"/>
    <path d="M0 43.9997L10.3103 26.1978L12.6097 30.129L11.1262 32.5768L10.3103 31.3158L3.04116 43.9997H0Z"
          fill="white"/>
    <path d="M5.8598 43.9997L16.1701 26.1978H19.1371L14.7608 33.8378L17.6536 38.8816L14.7608 38.9558L13.2773 36.4339L10.3103 41.4777H19.1371L20.5464 43.9997H5.8598Z"
          fill="white"/>
</svg>
