<svg width="312" height="320" viewBox="0 0 312 320" fill="none" xmlns="http://www.w3.org/2000/svg">
<path d="M121.814 0.875C115.439 2.875 109.627 8.0625 106.877 14C105.939 16 104.689 21.5 103.439 28.5C102.377 34.625 101.064 40.8125 100.439 42.25C97.6895 48.4375 91.752 52.5 84.752 53C80.9395 53.25 80.0645 53 69.4395 49C58.4395 44.875 58.0645 44.75 52.252 44.75C44.002 44.75 40.1895 46.3125 34.752 51.8125C31.252 55.375 28.8145 59.1875 17.377 79.25C10.002 92.0625 3.50198 103.562 2.87698 104.875C-0.24802 111.312 0.00197983 120 3.50198 126.812C5.75198 131.25 7.31448 132.812 17.127 140.938C27.5645 149.562 29.6895 152.75 29.6895 160C29.6895 167.25 27.5645 170.438 17.127 179.062C7.31448 187.188 5.75198 188.812 3.50198 193.188C1.00198 198.062 0.12698 203.5 1.00198 208.625C1.87698 213.875 1.62698 213.375 17.377 240.75C28.8145 260.812 31.252 264.625 34.752 268.188C40.1895 273.688 44.002 275.25 52.252 275.25C58.0645 275.25 58.4395 275.125 69.4395 271C80.0645 267 80.9395 266.75 84.752 267C91.752 267.5 97.6895 271.562 100.439 277.75C101.064 279.188 102.377 285.375 103.439 291.5C104.689 298.625 105.939 304 106.939 306.062C108.939 310.438 114.377 315.875 118.939 318L122.564 319.688H156.002H189.439L193.064 318C197.627 315.875 203.064 310.438 205.064 306.062C206.064 304 207.314 298.625 208.564 291.5C209.627 285.375 210.939 279.188 211.564 277.75C214.314 271.562 220.252 267.5 227.252 267C231.064 266.75 231.939 267 242.564 271C253.564 275.125 253.939 275.25 259.752 275.25C268.002 275.25 271.814 273.688 277.252 268.188C280.752 264.625 283.189 260.812 294.627 240.875C301.939 228.125 308.439 216.562 309.064 215.188C312.189 208.812 311.939 199.938 308.502 193.25C306.252 188.75 304.689 187.188 294.877 179.062C284.439 170.438 282.314 167.25 282.314 160C282.314 153.062 284.564 149.375 293.189 142.375C306.627 131.375 309.689 127.375 311.002 119.062C311.752 114.312 311.002 108.812 309.064 104.812C308.439 103.438 301.939 91.875 294.627 79.125C283.189 59.1875 280.752 55.375 277.252 51.8125C271.814 46.3125 268.002 44.75 259.752 44.75C253.939 44.75 253.564 44.875 242.564 49C231.939 53 231.064 53.25 227.252 53C220.252 52.5 214.314 48.4375 211.564 42.25C210.939 40.8125 209.627 34.625 208.564 28.4375C207.064 19.875 206.189 16.25 204.752 13.3125C202.502 8.75 197.877 4.3125 192.877 1.9375L189.439 0.3125L156.939 0.1875C131.314 0.0625 123.877 0.25 121.814 0.875ZM183.439 34.1875C185.127 44.8125 187.002 51.3125 189.877 56.4375C197.627 70.1875 212.314 78.75 228.189 78.75C235.002 78.75 239.939 77.5625 251.377 73.3125L259.564 70.1875L272.564 92.6875C283.314 111.312 285.377 115.25 284.689 115.875C284.189 116.312 280.627 119.25 276.814 122.438C267.752 129.875 264.689 133.375 261.252 140.312C258.002 146.875 256.627 152.625 256.627 160C256.627 167.375 258.002 173.125 261.252 179.688C264.689 186.625 267.752 190.125 276.814 197.562C280.627 200.75 284.189 203.688 284.689 204.125C285.377 204.75 283.314 208.688 272.564 227.312L259.564 249.812L251.377 246.688C239.939 242.438 235.002 241.25 228.189 241.25C208.877 241.25 192.189 253.438 186.377 271.875C185.564 274.438 184.252 280.688 183.439 285.75L182.002 295H156.002H130.002L128.564 285.812C127.752 280.688 126.439 274.438 125.627 271.875C119.814 253.438 103.127 241.25 83.8145 241.25C77.002 241.25 72.0645 242.438 60.627 246.688L52.4395 249.812L39.4395 227.312C28.752 208.75 26.627 204.75 27.3145 204.125C27.8145 203.688 31.377 200.75 35.1895 197.562C44.252 190.125 47.3145 186.625 50.752 179.688C54.002 173.125 55.377 167.375 55.377 160C55.377 152.625 54.002 146.875 50.752 140.312C47.3145 133.375 44.252 129.875 35.1895 122.438C31.377 119.25 27.8145 116.312 27.3145 115.875C26.627 115.25 28.752 111.25 39.4395 92.6875L52.4395 70.25L61.377 73.5625C73.9395 78.25 77.377 78.9375 85.6895 78.5625C97.8145 78.0625 107.564 73.625 116.002 64.625C123.127 57.0625 126.064 49.9375 128.564 34.1875L130.002 25H156.002H182.002L183.439 34.1875Z" fill="white" fill-opacity="0.04"/>
<path d="M143.5 99.3742C114.312 105.624 94.125 130.437 94.125 159.999C94.125 190.187 115.562 215.749 145.188 220.937C183.25 227.562 217.875 198.562 217.875 159.999C217.875 129.999 196.875 104.687 167.25 99.1242C160.438 97.8117 150.188 97.9367 143.5 99.3742ZM165.375 125.062C171.75 126.812 175.5 128.937 180.562 133.687C195.438 147.687 196.188 169.812 182.312 184.562C168.25 199.437 146.188 200.187 131.438 186.312C115.812 171.562 115.812 148.374 131.438 133.687C140.812 124.874 153.312 121.687 165.375 125.062Z" fill="white" fill-opacity="0.04"/>
</svg>
