<svg width="20" height="20" viewBox="0 0 20 20" fill="none" xmlns="http://www.w3.org/2000/svg">
    <path fill-rule="evenodd" clip-rule="evenodd"
          d="M13.2044 14.9719C12.0838 15.8261 10.6845 16.3333 9.16667 16.3333C5.48477 16.3333 2.5 13.3486 2.5 9.66667C2.5 5.98477 5.48477 3 9.16667 3C12.8486 3 15.8333 5.98477 15.8333 9.66667C15.8333 11.3927 15.1774 12.9656 14.1011 14.1495C14.1233 14.1646 14.1447 14.1813 14.1652 14.1995L17.9152 17.5329C18.1732 17.7622 18.1965 18.1572 17.9671 18.4152C17.7378 18.6732 17.3428 18.6965 17.0848 18.4671L13.3348 15.1338C13.2811 15.0861 13.2376 15.0312 13.2044 14.9719ZM14.5833 9.66667C14.5833 12.6582 12.1582 15.0833 9.16667 15.0833C6.17512 15.0833 3.75 12.6582 3.75 9.66667C3.75 6.67512 6.17512 4.25 9.16667 4.25C12.1582 4.25 14.5833 6.67512 14.5833 9.66667Z"
          fill="#223342"/>
</svg>