<svg width="20" height="20" viewBox="0 0 20 20" fill="none" xmlns="http://www.w3.org/2000/svg">
<path d="M0.933333 3.60003C0.733333 3.80003 0.666667 5.28892 0.666667 8.93336C0.666667 13.2889 0.622222 14 0.333333 14C0.111111 14 0 14.2222 0 14.6667V15.3334H1.33333C2.4 15.3334 2.66667 15.4 2.66667 15.6889C2.66667 15.8667 2.95556 16.3334 3.31111 16.6889C4.24444 17.6222 5.75556 17.6222 6.68889 16.6889C7.04444 16.3334 7.33333 15.8667 7.33333 15.6889C7.33333 15.3778 7.75556 15.3334 10.3333 15.3334C12.9111 15.3334 13.3333 15.3778 13.3333 15.6889C13.3333 15.8667 13.6222 16.3334 13.9778 16.6889C14.9111 17.6222 16.4222 17.6222 17.3556 16.6889C17.7111 16.3334 18 15.8667 18 15.6889C18 15.4222 18.2444 15.3334 19 15.3334C19.9556 15.3334 20 15.3111 20 14.6667C20 14.2222 19.8889 14 19.6667 14C19.4 14 19.3333 13.6667 19.3333 12.3334V10.6667H17.3333H15.3333V9.35558C15.3333 7.71114 15.6444 7.33336 17.0222 7.33336C18.0889 7.33336 18.1778 7.22225 17.6444 6.48892C17.3333 6.02225 17.1556 6.00003 14.6444 6.00003H12V4.93336C12 4.35558 11.8889 3.75558 11.7333 3.60003C11.3556 3.22225 1.31111 3.22225 0.933333 3.60003ZM9.11111 6.60003C9.11111 7.06669 5.8 10.4445 5.35556 10.4445C4.88889 10.4445 3.55556 9.08892 3.55556 8.62225C3.55556 8.06669 4.2 8.11114 4.82222 8.71114L5.35556 9.20003L6.84444 7.71114C8.31111 6.24447 9.11111 5.84447 9.11111 6.60003ZM5.66667 15C5.66667 15.6 5.6 15.6667 5 15.6667C4.53333 15.6667 4.31111 15.5556 4.26667 15.2667C4.13333 14.5334 4.4 14.1778 5.04444 14.2667C5.57778 14.3334 5.66667 14.4445 5.66667 15ZM16.3333 15C16.3333 15.6 16.2667 15.6667 15.6667 15.6667C15.2 15.6667 14.9778 15.5556 14.9333 15.2667C14.8 14.5334 15.0667 14.1778 15.7111 14.2667C16.2444 14.3334 16.3333 14.4445 16.3333 15Z" fill="white"/>
</svg>
