<svg width="20" height="20" viewBox="0 0 20 20" fill="none" xmlns="http://www.w3.org/2000/svg">
<path d="M2.93259 2.26667C2.77703 2.42222 2.66592 2.82222 2.66592 3.17778C2.66592 3.6 2.31037 4.26667 1.66592 5.11111C0.643701 6.44444 0.421479 7.28889 0.977034 7.75556C1.42148 8.11111 2.91037 7.97778 3.11037 7.55556C3.19926 7.37778 3.59926 6.48889 4.02148 5.6C4.75481 4 4.75481 4 5.62148 4C6.46592 4 6.48814 4.02222 6.35481 4.6C5.75481 7.31111 5.95481 8 7.31037 8C8.48815 8 8.66592 7.71111 8.66592 5.73333V4H9.99926H11.3326V5.73333C11.3326 7.71111 11.5104 8 12.6881 8C14.0437 8 14.2437 7.31111 13.6437 4.6C13.5104 4.02222 13.5326 4 14.377 4C15.2437 4 15.2437 4 15.977 5.6C16.3993 6.48889 16.7993 7.37778 16.8881 7.55556C17.0881 7.97778 18.577 8.11111 19.0215 7.75556C19.577 7.28889 19.3548 6.44444 18.3326 5.11111C17.6881 4.26667 17.3326 3.6 17.3326 3.17778C17.3326 2.82222 17.2215 2.42222 17.0659 2.26667C16.6881 1.88889 3.31037 1.88889 2.93259 2.26667Z" fill="white"/>
<path d="M2.51062 9.06667C1.99951 9.13333 1.99951 9.15556 1.99951 13.3111C1.99951 16.2444 2.0884 17.5556 2.26618 17.7333C2.46618 17.9333 3.79951 18 6.93285 18H11.3328V14.6667V11.3333H13.3328H15.3328V14.6667V18H16.3995C16.9773 18 17.5773 17.8889 17.7328 17.7333C17.9106 17.5556 17.9995 16.2444 17.9995 13.2889C17.9995 9.46667 17.9773 9.11111 17.6217 9.08889C16.4662 9.02222 2.93285 9 2.51062 9.06667ZM8.66618 13.3333V15.3333H6.66618H4.66618V13.3333V11.3333H6.66618H8.66618V13.3333Z" fill="white"/>
</svg>
