<svg width="230" height="160" viewBox="0 0 230 160" fill="none" xmlns="http://www.w3.org/2000/svg">
<path d="M28.75 20.1445C24.7805 20.1445 21.5625 23.3625 21.5625 27.332C21.5625 31.3016 24.7805 34.5195 28.75 34.5195C36.5801 34.5195 43.3596 39.9579 45.0582 47.6015L49.1783 66.1421C49.2082 66.5924 49.2808 67.0427 49.3972 67.487L49.9238 69.4967L50.4837 72.0162C50.5938 72.5117 50.7526 72.9837 50.9539 73.4285L67.0077 134.702C72.2532 154.724 90.3451 168.686 111.042 168.686H153.333C157.303 168.686 160.521 165.468 160.521 161.499C160.521 157.529 157.303 154.311 153.333 154.311H111.042C96.881 154.311 84.5024 144.758 80.9133 131.059L65.6633 72.8529H163.217C175.994 72.8529 187.475 80.6558 192.177 92.5355C193.638 96.2264 197.814 98.0341 201.505 96.5732C205.196 95.1122 207.004 90.9357 205.543 87.2448C198.67 69.8822 181.891 58.4779 163.217 58.4779H62.2008L59.0908 44.4831C55.9307 30.2624 43.3176 20.1445 28.75 20.1445Z" fill="#223342" fill-opacity="0.03"/>
<path d="M95.8333 190.249C95.8333 195.541 91.5427 199.832 86.25 199.832C80.9573 199.832 76.6667 195.541 76.6667 190.249C76.6667 184.956 80.9573 180.665 86.25 180.665C91.5427 180.665 95.8333 184.956 95.8333 190.249Z" fill="#223342" fill-opacity="0.03"/>
<path d="M172.5 190.249C172.5 195.541 168.209 199.832 162.917 199.832C157.624 199.832 153.333 195.541 153.333 190.249C153.333 184.956 157.624 180.665 162.917 180.665C168.209 180.665 172.5 184.956 172.5 190.249Z" fill="#223342" fill-opacity="0.03"/>
<path d="M215.916 108.5C218.723 111.307 218.723 115.857 215.916 118.664L187.394 147.186C184.656 149.924 180.241 150.001 177.409 147.36L162.806 133.742C159.903 131.034 159.745 126.486 162.452 123.583C165.159 120.68 169.707 120.521 172.61 123.229L182.137 132.113L205.751 108.5C208.558 105.693 213.109 105.693 215.916 108.5Z" fill="#223342" fill-opacity="0.03"/>
</svg>
