<svg width="230" height="160" viewBox="0 0 230 160" fill="none" xmlns="http://www.w3.org/2000/svg">
<path d="M151.687 124.514C147.717 124.514 144.499 121.296 144.499 117.327V107.437L120.08 131.856C117.273 134.663 112.722 134.663 109.915 131.856L100.622 122.564L72.1631 151.023C69.3562 153.83 64.8053 153.83 61.9984 151.023C59.1915 148.216 59.1915 143.665 61.9984 140.858L95.5401 107.317C98.347 104.51 102.898 104.51 105.705 107.317L114.997 116.609L134.198 97.4084H124.581C120.612 97.4084 117.394 94.1904 117.394 90.2209C117.394 86.2513 120.612 83.0334 124.581 83.0334L151.687 83.0334C155.656 83.0334 158.874 86.2513 158.874 90.2209L158.874 117.327C158.874 121.296 155.656 124.514 151.687 124.514Z" fill="#364D60" fill-opacity="0.03"/>
<path fill-rule="evenodd" clip-rule="evenodd" d="M19.1641 115.001C19.1641 150.828 19.1641 168.742 26.8676 182.085C31.9143 190.826 39.173 198.084 47.9141 203.131C61.257 210.835 79.1705 210.835 114.997 210.835C150.824 210.835 168.738 210.835 182.081 203.131C190.822 198.084 198.081 190.826 203.127 182.085C210.831 168.742 210.831 150.828 210.831 115.001C210.831 79.1744 210.831 61.2609 203.127 47.918C198.081 39.1769 190.822 31.9182 182.081 26.8715C168.738 19.168 150.824 19.168 114.997 19.168C79.1705 19.168 61.257 19.168 47.9141 26.8715C39.173 31.9182 31.9143 39.1769 26.8676 47.918C19.1641 61.2609 19.1641 79.1744 19.1641 115.001ZM190.678 55.1055C193.056 59.2244 194.679 64.6981 195.551 74.3257C196.442 84.1509 196.456 96.8233 196.456 115.001C196.456 133.179 196.442 145.852 195.551 155.677C194.679 165.305 193.056 170.778 190.678 174.897C186.893 181.453 181.449 186.897 174.893 190.682C170.774 193.06 165.301 194.683 155.673 195.555C145.848 196.446 133.175 196.46 114.997 196.46C96.8194 196.46 84.147 196.446 74.3218 195.555C64.6942 194.683 59.2205 193.06 55.1016 190.682C48.5457 186.897 43.1017 181.453 39.3167 174.897C36.9387 170.778 35.3159 165.305 34.4433 155.677C33.5528 145.852 33.5391 133.179 33.5391 115.001C33.5391 96.8233 33.5528 84.1509 34.4433 74.3257C35.3159 64.6981 36.9386 59.2244 39.3167 55.1055C43.1017 48.5496 48.5457 43.1056 55.1016 39.3206C59.2205 36.9426 64.6942 35.3198 74.3218 34.4472C84.147 33.5567 96.8194 33.543 114.997 33.543C133.175 33.543 145.848 33.5567 155.673 34.4472C165.301 35.3198 170.774 36.9426 174.893 39.3206C181.449 43.1056 186.893 48.5496 190.678 55.1055Z" fill="#364D60" fill-opacity="0.03"/>
</svg>
