<svg width="225" height="160" viewBox="0 0 225 160" fill="none" xmlns="http://www.w3.org/2000/svg">
<path d="M134.167 168.687C138.136 168.687 141.354 165.469 141.354 161.5C141.354 157.53 138.136 154.312 134.167 154.312H95.8335C91.864 154.312 88.646 157.53 88.646 161.5C88.646 165.469 91.864 168.687 95.8335 168.687H134.167Z" fill="#364D60" fill-opacity="0.03"/>
<path fill-rule="evenodd" clip-rule="evenodd" d="M36.7294 70.7831L91.0534 27.3239C105.053 16.1238 124.947 16.1238 138.947 27.3239L193.271 70.7831C204.115 79.4583 209.419 93.3201 207.136 107.018L197.005 167.802C193.925 186.286 177.932 199.833 159.193 199.833H70.8066C52.0677 199.833 36.0755 186.286 32.9948 167.802L22.8642 107.018C20.5812 93.3201 25.8853 79.4583 36.7294 70.7831ZM45.7093 82.0081L100.033 38.5488C108.783 31.5488 121.217 31.5488 129.967 38.5488L184.291 82.0081C191.068 87.4301 194.383 96.0937 192.956 104.655L182.826 165.439C180.9 176.991 170.905 185.458 159.193 185.458H70.8066C59.0948 185.458 49.0996 176.991 47.1742 165.439L37.0436 104.655C35.6167 96.0937 38.9318 87.4301 45.7093 82.0081Z" fill="#364D60" fill-opacity="0.03"/>
</svg>
