<svg width="230" height="160" viewBox="0 0 230 160" fill="none" xmlns="http://www.w3.org/2000/svg">
<path fill-rule="evenodd" clip-rule="evenodd" d="M107.269 37.5264L41.2269 103.555C38.6985 106.084 37.2714 109.51 37.2562 113.086C37.2409 116.662 38.6388 120.099 41.1455 122.649L100.408 182.996C102.929 185.56 106.366 187.018 109.962 187.048C113.558 187.079 117.018 185.68 119.583 183.159L186.846 117.144C188.776 115.252 190.31 112.994 191.358 110.503C192.406 108.011 192.946 105.336 192.949 102.633V45.1206C192.949 41.5239 191.52 38.0746 188.977 35.5314C186.433 32.9882 182.984 31.5595 179.387 31.5595H121.658C118.985 31.5601 116.339 32.0873 113.87 33.1112C111.401 34.135 109.158 35.6353 107.269 37.5264ZM196.254 131.668C200.111 127.88 203.174 123.361 205.265 118.376C207.356 113.391 208.433 108.039 208.432 102.633L208.432 50.9163C208.432 41.9247 205.778 33.7939 199.42 27.4359C193.062 21.0779 185.581 19.5249 176.59 19.5249L121.694 19.5249C116.35 19.5243 111.058 20.5767 106.12 22.622C101.183 24.6673 96.6963 27.6654 92.9178 31.4451L33.5103 90.9244C27.1935 97.2462 23.6282 105.807 23.5902 114.743C23.5521 123.68 27.0442 132.27 33.3069 138.646L85.8023 191.393C92.1023 197.807 100.692 201.455 109.682 201.537C118.672 201.618 127.326 198.126 133.741 191.827L196.254 131.668ZM148.116 52.4165C146.209 50.5118 143.623 49.442 140.928 49.442C138.233 49.442 135.648 50.5118 133.741 52.4165L109.765 76.3789L108.571 75.1856C106.643 73.389 104.093 72.4109 101.458 72.4574C98.8233 72.5039 96.3093 73.5713 94.4458 75.4348C92.5823 77.2983 91.5149 79.8123 91.4684 82.4472C91.4219 85.0822 92.4 87.6323 94.1966 89.5603L95.3764 90.7808L90.5893 95.5679L89.396 94.361C87.4879 92.4529 84.9001 91.381 82.2018 91.381C79.5034 91.381 76.9156 92.4529 75.0076 94.361C73.0996 96.269 72.0277 98.8568 72.0277 101.555C72.0277 102.891 72.2909 104.214 72.8022 105.449C73.3135 106.683 74.0629 107.805 75.0076 108.749L76.201 109.943L71.4139 114.743C69.6174 116.671 68.6393 119.221 68.6858 121.856C68.7323 124.491 69.7997 127.005 71.6632 128.869C73.5266 130.732 76.0407 131.8 78.6756 131.846C81.3105 131.893 83.8607 130.915 85.7887 129.118L90.5893 124.331L104.964 138.706C105.902 139.678 107.024 140.453 108.264 140.987C109.505 141.52 110.84 141.801 112.19 141.814C113.54 141.826 114.88 141.569 116.13 141.059C117.38 140.548 118.516 139.793 119.472 138.839C120.427 137.884 121.183 136.749 121.695 135.499C122.207 134.249 122.465 132.91 122.454 131.56C122.443 130.209 122.163 128.875 121.63 127.633C121.098 126.392 120.323 125.27 119.352 124.331L104.978 109.956L109.765 105.156L120.559 115.937C126.641 121.765 134.764 124.979 143.187 124.89C151.61 124.8 159.663 121.415 165.619 115.458C171.576 109.502 174.961 101.449 175.051 93.026C175.14 84.6029 171.926 76.48 166.098 70.3985L148.116 52.4165ZM134.934 101.562L124.153 90.7673L140.928 74.0057L151.723 84.7868C153.949 87.0131 155.2 90.0327 155.2 93.1811C155.2 96.3296 153.949 99.3492 151.723 101.575C149.496 103.802 146.477 105.053 143.328 105.053C140.18 105.053 137.16 103.788 134.934 101.562Z" fill="#364D60" fill-opacity="0.03"/>
</svg>
