<svg width="18" height="19" viewBox="0 0 18 19" fill="none" xmlns="http://www.w3.org/2000/svg">
<path d="M1.6875 4.25C1.6875 3.93934 1.93934 3.6875 2.25 3.6875H15.75C16.0607 3.6875 16.3125 3.93934 16.3125 4.25C16.3125 4.56066 16.0607 4.8125 15.75 4.8125H2.25C1.93934 4.8125 1.6875 4.56066 1.6875 4.25Z" fill="white"/>
<path d="M1.6875 9.5C1.6875 9.18934 1.93934 8.9375 2.25 8.9375H15.75C16.0607 8.9375 16.3125 9.18934 16.3125 9.5C16.3125 9.81066 16.0607 10.0625 15.75 10.0625H2.25C1.93934 10.0625 1.6875 9.81066 1.6875 9.5Z" fill="white"/>
<path d="M2.25 14.1875C1.93934 14.1875 1.6875 14.4393 1.6875 14.75C1.6875 15.0607 1.93934 15.3125 2.25 15.3125H15.75C16.0607 15.3125 16.3125 15.0607 16.3125 14.75C16.3125 14.4393 16.0607 14.1875 15.75 14.1875H2.25Z" fill="white"/>
</svg>
