<svg width="168" height="67" viewBox="0 0 168 67" fill="none" xmlns="http://www.w3.org/2000/svg">
    <mask id="path-1-outside-1_220_2540" maskUnits="userSpaceOnUse" x="33.8701" y="35.9302" width="134" height="31"
          fill="black">
        <rect fill="white" x="33.8701" y="35.9302" width="134" height="31"/>
        <path d="M45.3554 66.0599C43.4874 66.0599 41.7549 65.638 40.158 64.7944C38.5611 63.9206 37.2805 62.6702 36.3164 61.0432C35.3522 59.4161 34.8701 57.4577 34.8701 55.1678C34.8701 53.1189 35.2015 51.2358 35.8644 49.5184C36.5574 47.8009 37.5216 46.3095 38.7569 45.044C39.9923 43.7785 41.4234 42.7993 43.0505 42.1063C44.6775 41.3832 46.4251 41.0216 48.2931 41.0216C50.3119 41.0216 52.0444 41.3983 53.4906 42.1515C54.9369 42.9048 56.0065 44.0798 56.6995 45.6768C57.4226 47.2435 57.6787 49.2773 57.4678 51.7781C57.3172 54.6405 56.7296 57.1564 55.7052 59.3258C54.6808 61.465 53.2948 63.1222 51.5472 64.2972C49.8298 65.4723 47.7659 66.0599 45.3554 66.0599ZM47.5248 60.2297C48.9108 60.2297 50.1311 59.8982 51.1856 59.2354C52.2703 58.5424 53.114 57.6083 53.7166 56.4333C54.3493 55.228 54.6657 53.827 54.6657 52.2301C54.6657 50.5729 54.1685 49.2623 53.1742 48.2981C52.2101 47.3339 50.8542 46.8518 49.1067 46.8518C47.7508 46.8518 46.5305 47.1983 45.4458 47.8913C44.3611 48.5542 43.5024 49.4882 42.8697 50.6934C42.2671 51.8685 41.9658 53.2545 41.9658 54.8514C41.9658 56.5086 42.4479 57.8192 43.412 58.7834C44.4063 59.7476 45.7773 60.2297 47.5248 60.2297ZM52.3607 65.6983L53.3098 60.8624L54.8917 53.6311L55.8408 46.3999L56.8351 41.3832H63.8855L59.0496 65.6983H52.3607Z"/>
        <path d="M80.527 66.0599C78.5384 66.0599 76.821 65.638 75.3747 64.7944C73.9285 63.9206 72.904 62.6551 72.3014 60.998C71.6988 59.3408 71.6386 57.292 72.1206 54.8514L74.7872 41.3832H81.8376L79.2615 54.3995C78.8999 56.1771 79.0355 57.5481 79.6683 58.5122C80.3311 59.4764 81.4911 59.9585 83.1483 59.9585C84.8959 59.9585 86.3572 59.4463 87.5323 58.4218C88.7375 57.3974 89.5359 55.8306 89.9276 53.7215L92.4134 41.3832H99.4638L94.6279 65.6983H87.939L89.2949 58.8286L90.2892 60.9076C89.1442 62.6853 87.713 63.9959 85.9956 64.8396C84.2782 65.6531 82.4553 66.0599 80.527 66.0599Z"/>
        <path d="M131.983 41.0216C134.032 41.0216 135.764 41.4585 137.18 42.3323C138.597 43.1759 139.606 44.4263 140.209 46.0835C140.811 47.7407 140.856 49.7895 140.344 52.2301L137.678 65.6983H130.627L133.203 52.7272C133.595 50.9194 133.474 49.5334 132.842 48.5693C132.209 47.6051 131.109 47.123 129.542 47.123C127.885 47.123 126.514 47.6202 125.43 48.6145C124.345 49.5786 123.592 51.1153 123.17 53.2244L120.684 65.6983H113.634L116.21 52.7272C116.571 50.9194 116.436 49.5334 115.803 48.5693C115.2 47.6051 114.116 47.123 112.549 47.123C110.892 47.123 109.521 47.6202 108.436 48.6145C107.351 49.5786 106.583 51.1454 106.131 53.3148L103.691 65.6983H96.6402L101.476 41.3832H108.165L106.9 47.575L105.815 46.1739C106.93 44.4263 108.316 43.1307 109.973 42.2871C111.63 41.4435 113.393 41.0216 115.261 41.0216C116.767 41.0216 118.123 41.2928 119.328 41.8351C120.533 42.3775 121.513 43.191 122.266 44.2757C123.049 45.3303 123.501 46.656 123.622 48.2529L120.91 47.575C122.115 45.4357 123.652 43.8087 125.52 42.6939C127.418 41.579 129.573 41.0216 131.983 41.0216Z"/>
        <path d="M152.311 66.0599C149.84 66.0599 147.686 65.6079 145.848 64.704C144.01 63.8001 142.579 62.5346 141.555 60.9076C140.56 59.2806 140.063 57.3673 140.063 55.1678C140.063 52.4561 140.696 50.0456 141.961 47.9365C143.227 45.7973 144.959 44.11 147.159 42.8746C149.388 41.6393 151.919 41.0216 154.752 41.0216C157.252 41.0216 159.407 41.4736 161.215 42.3775C163.052 43.2814 164.469 44.5469 165.463 46.1739C166.487 47.7708 167 49.6841 167 51.9137C167 54.5953 166.367 57.0057 165.101 59.145C163.836 61.2842 162.103 62.9715 159.904 64.2069C157.704 65.4422 155.173 66.0599 152.311 66.0599ZM152.763 60.2749C154.149 60.2749 155.369 59.9434 156.424 59.2806C157.508 58.5876 158.352 57.6385 158.955 56.4333C159.557 55.228 159.859 53.827 159.859 52.2301C159.859 50.603 159.377 49.2924 158.412 48.2981C157.448 47.3038 156.092 46.8066 154.345 46.8066C152.959 46.8066 151.723 47.1531 150.639 47.8461C149.584 48.509 148.741 49.443 148.108 50.6482C147.505 51.8535 147.204 53.2545 147.204 54.8514C147.204 56.5086 147.686 57.8343 148.65 58.8286C149.614 59.7928 150.985 60.2749 152.763 60.2749Z"/>
        <path fill-rule="evenodd" clip-rule="evenodd"
              d="M66.7958 36.9302L61.0577 65.6983H68.1081L73.8463 36.9302H66.7958Z"/>
    </mask>
    <path d="M45.3554 66.0599C43.4874 66.0599 41.7549 65.638 40.158 64.7944C38.5611 63.9206 37.2805 62.6702 36.3164 61.0432C35.3522 59.4161 34.8701 57.4577 34.8701 55.1678C34.8701 53.1189 35.2015 51.2358 35.8644 49.5184C36.5574 47.8009 37.5216 46.3095 38.7569 45.044C39.9923 43.7785 41.4234 42.7993 43.0505 42.1063C44.6775 41.3832 46.4251 41.0216 48.2931 41.0216C50.3119 41.0216 52.0444 41.3983 53.4906 42.1515C54.9369 42.9048 56.0065 44.0798 56.6995 45.6768C57.4226 47.2435 57.6787 49.2773 57.4678 51.7781C57.3172 54.6405 56.7296 57.1564 55.7052 59.3258C54.6808 61.465 53.2948 63.1222 51.5472 64.2972C49.8298 65.4723 47.7659 66.0599 45.3554 66.0599ZM47.5248 60.2297C48.9108 60.2297 50.1311 59.8982 51.1856 59.2354C52.2703 58.5424 53.114 57.6083 53.7166 56.4333C54.3493 55.228 54.6657 53.827 54.6657 52.2301C54.6657 50.5729 54.1685 49.2623 53.1742 48.2981C52.2101 47.3339 50.8542 46.8518 49.1067 46.8518C47.7508 46.8518 46.5305 47.1983 45.4458 47.8913C44.3611 48.5542 43.5024 49.4882 42.8697 50.6934C42.2671 51.8685 41.9658 53.2545 41.9658 54.8514C41.9658 56.5086 42.4479 57.8192 43.412 58.7834C44.4063 59.7476 45.7773 60.2297 47.5248 60.2297ZM52.3607 65.6983L53.3098 60.8624L54.8917 53.6311L55.8408 46.3999L56.8351 41.3832H63.8855L59.0496 65.6983H52.3607Z"
          stroke="#223342" stroke-width="1.07044" mask="url(#path-1-outside-1_220_2540)"/>
    <path d="M80.527 66.0599C78.5384 66.0599 76.821 65.638 75.3747 64.7944C73.9285 63.9206 72.904 62.6551 72.3014 60.998C71.6988 59.3408 71.6386 57.292 72.1206 54.8514L74.7872 41.3832H81.8376L79.2615 54.3995C78.8999 56.1771 79.0355 57.5481 79.6683 58.5122C80.3311 59.4764 81.4911 59.9585 83.1483 59.9585C84.8959 59.9585 86.3572 59.4463 87.5323 58.4218C88.7375 57.3974 89.5359 55.8306 89.9276 53.7215L92.4134 41.3832H99.4638L94.6279 65.6983H87.939L89.2949 58.8286L90.2892 60.9076C89.1442 62.6853 87.713 63.9959 85.9956 64.8396C84.2782 65.6531 82.4553 66.0599 80.527 66.0599Z"
          stroke="#223342" stroke-width="1.07044" mask="url(#path-1-outside-1_220_2540)"/>
    <path d="M131.983 41.0216C134.032 41.0216 135.764 41.4585 137.18 42.3323C138.597 43.1759 139.606 44.4263 140.209 46.0835C140.811 47.7407 140.856 49.7895 140.344 52.2301L137.678 65.6983H130.627L133.203 52.7272C133.595 50.9194 133.474 49.5334 132.842 48.5693C132.209 47.6051 131.109 47.123 129.542 47.123C127.885 47.123 126.514 47.6202 125.43 48.6145C124.345 49.5786 123.592 51.1153 123.17 53.2244L120.684 65.6983H113.634L116.21 52.7272C116.571 50.9194 116.436 49.5334 115.803 48.5693C115.2 47.6051 114.116 47.123 112.549 47.123C110.892 47.123 109.521 47.6202 108.436 48.6145C107.351 49.5786 106.583 51.1454 106.131 53.3148L103.691 65.6983H96.6402L101.476 41.3832H108.165L106.9 47.575L105.815 46.1739C106.93 44.4263 108.316 43.1307 109.973 42.2871C111.63 41.4435 113.393 41.0216 115.261 41.0216C116.767 41.0216 118.123 41.2928 119.328 41.8351C120.533 42.3775 121.513 43.191 122.266 44.2757C123.049 45.3303 123.501 46.656 123.622 48.2529L120.91 47.575C122.115 45.4357 123.652 43.8087 125.52 42.6939C127.418 41.579 129.573 41.0216 131.983 41.0216Z"
          stroke="#223342" stroke-width="1.07044" mask="url(#path-1-outside-1_220_2540)"/>
    <path d="M152.311 66.0599C149.84 66.0599 147.686 65.6079 145.848 64.704C144.01 63.8001 142.579 62.5346 141.555 60.9076C140.56 59.2806 140.063 57.3673 140.063 55.1678C140.063 52.4561 140.696 50.0456 141.961 47.9365C143.227 45.7973 144.959 44.11 147.159 42.8746C149.388 41.6393 151.919 41.0216 154.752 41.0216C157.252 41.0216 159.407 41.4736 161.215 42.3775C163.052 43.2814 164.469 44.5469 165.463 46.1739C166.487 47.7708 167 49.6841 167 51.9137C167 54.5953 166.367 57.0057 165.101 59.145C163.836 61.2842 162.103 62.9715 159.904 64.2069C157.704 65.4422 155.173 66.0599 152.311 66.0599ZM152.763 60.2749C154.149 60.2749 155.369 59.9434 156.424 59.2806C157.508 58.5876 158.352 57.6385 158.955 56.4333C159.557 55.228 159.859 53.827 159.859 52.2301C159.859 50.603 159.377 49.2924 158.412 48.2981C157.448 47.3038 156.092 46.8066 154.345 46.8066C152.959 46.8066 151.723 47.1531 150.639 47.8461C149.584 48.509 148.741 49.443 148.108 50.6482C147.505 51.8535 147.204 53.2545 147.204 54.8514C147.204 56.5086 147.686 57.8343 148.65 58.8286C149.614 59.7928 150.985 60.2749 152.763 60.2749Z"
          stroke="#223342" stroke-width="1.07044" mask="url(#path-1-outside-1_220_2540)"/>
    <path fill-rule="evenodd" clip-rule="evenodd" d="M66.7958 36.9302L61.0577 65.6983H68.1081L73.8463 36.9302H66.7958Z"
          stroke="#223342" stroke-width="1.07044" mask="url(#path-1-outside-1_220_2540)"/>
    <path d="M99.249 35.9302C97.3809 35.9302 95.6484 35.5083 94.0515 34.6647C92.4546 33.7909 91.1741 32.5405 90.2099 30.9135C89.2458 29.2864 88.7637 27.328 88.7637 25.0381C88.7637 22.9892 89.0951 21.1061 89.758 19.3887C90.451 17.6712 91.4151 16.1798 92.6505 14.9143C93.8858 13.6488 95.317 12.6696 96.944 11.9766C98.5711 11.2535 100.319 10.8919 102.187 10.8919C104.205 10.8919 105.938 11.2686 107.384 12.0218C108.83 12.7751 109.9 13.9502 110.593 15.5471C111.316 17.1138 111.572 19.1476 111.361 21.6484C111.211 24.5108 110.623 27.0267 109.599 29.1961C108.574 31.3353 107.188 32.9925 105.441 34.1675C103.723 35.3426 101.659 35.9302 99.249 35.9302ZM101.418 30.1C102.804 30.1 104.025 29.7685 105.079 29.1057C106.164 28.4127 107.008 27.4786 107.61 26.3036C108.243 25.0983 108.559 23.6973 108.559 22.1004C108.559 20.4432 108.062 19.1326 107.068 18.1684C106.104 17.2042 104.748 16.7221 103 16.7221C101.644 16.7221 100.424 17.0686 99.3394 17.7616C98.2547 18.4245 97.396 19.3585 96.7633 20.5637C96.1606 21.7388 95.8593 23.1248 95.8593 24.7217C95.8593 26.3789 96.3414 27.6895 97.3056 28.6537C98.2999 29.6179 99.6708 30.1 101.418 30.1ZM106.254 35.5686L107.203 30.7327L108.785 23.5014L109.734 16.2702L110.729 11.2535H117.779L112.943 35.5686H106.254Z"
          fill="#364D60"/>
    <path d="M114.951 35.5686L119.787 11.2535H126.476L125.075 18.1684L124.442 16.1798C125.527 14.2213 126.943 12.8504 128.691 12.067C130.438 11.2836 132.532 10.8919 134.973 10.8919L133.707 17.4001C133.406 17.3699 133.12 17.3549 132.849 17.3549C132.608 17.3247 132.351 17.3097 132.08 17.3097C130.001 17.3097 128.299 17.8219 126.973 18.8463C125.678 19.8707 124.804 21.5279 124.352 23.8178L122.002 35.5686H114.951Z"
          fill="#364D60"/>
    <path d="M140.456 35.9302C138.708 35.9302 137.217 35.5837 135.981 34.8907C134.746 34.1675 133.857 33.1431 133.315 31.8174C132.802 30.4615 132.727 28.8646 133.089 27.0267L137.292 5.87524H144.342L140.139 26.9815C139.958 28.0059 140.064 28.8194 140.456 29.422C140.847 30.0246 141.57 30.3259 142.625 30.3259C143.107 30.3259 143.589 30.2506 144.071 30.1C144.583 29.9493 145.05 29.7384 145.472 29.4672L146.512 34.4839C145.638 35.0263 144.674 35.4029 143.619 35.6138C142.565 35.8247 141.51 35.9302 140.456 35.9302ZM131.281 17.2193L132.366 11.7958H149.223L148.139 17.2193H131.281Z"
          fill="#364D60"/>
    <path d="M53.6685 10.8921C55.7475 10.8921 57.5101 11.329 58.9564 12.2028C60.4026 13.0464 61.427 14.2968 62.0296 15.954C62.6322 17.6111 62.6925 19.66 62.2104 22.1005L59.4987 35.5688H52.4482L55.0695 22.5525C55.4311 20.7748 55.2805 19.4039 54.6176 18.4397C53.9849 17.4755 52.8098 16.9935 51.0924 16.9935C49.3147 16.9935 47.8232 17.5057 46.618 18.5301C45.4429 19.5545 44.6294 21.1213 44.1775 23.2304L41.7369 35.5688H34.6864L39.5223 11.2536H46.2113L44.8102 18.1233L43.8159 16.0444C44.991 14.2667 46.4372 12.9711 48.1547 12.1576C49.9022 11.3139 51.7402 10.8921 53.6685 10.8921Z"
          fill="#364D60"/>
    <path d="M74.4294 35.9303C71.8985 35.9303 69.699 35.4784 67.8309 34.5745C65.9929 33.6706 64.5618 32.4051 63.5373 30.7781C62.5129 29.151 62.0007 27.2377 62.0007 25.0382C62.0007 22.3265 62.6033 19.9161 63.8085 17.807C65.0438 15.6677 66.7311 13.9804 68.8704 12.7451C71.0398 11.5098 73.5255 10.8921 76.3276 10.8921C78.7079 10.8921 80.7568 11.344 82.4742 12.2479C84.1916 13.1217 85.5173 14.3571 86.4514 15.954C87.4156 17.5207 87.8976 19.4039 87.8976 21.6034C87.8976 22.2361 87.8524 22.8689 87.762 23.5016C87.7018 24.1343 87.6114 24.7369 87.4909 25.3094H67.3789L68.1021 21.1966H84.1916L81.2991 22.4621C81.5402 21.1062 81.4648 19.9764 81.0731 19.0724C80.6814 18.1384 80.0487 17.4304 79.1749 16.9483C78.3012 16.4361 77.2466 16.1799 76.0112 16.1799C74.4746 16.1799 73.1639 16.5566 72.0792 17.3098C71.0247 18.033 70.2262 19.0423 69.6839 20.3379C69.1416 21.6335 68.8704 23.0948 68.8704 24.7219C68.8704 26.5899 69.3826 27.991 70.407 28.925C71.4616 29.8289 73.0434 30.2809 75.1525 30.2809C76.3879 30.2809 77.578 30.0851 78.723 29.6934C79.8679 29.3017 80.8472 28.7443 81.6607 28.0211L84.5984 32.6763C83.1822 33.7911 81.5854 34.6197 79.8077 35.162C78.0601 35.6742 76.2674 35.9303 74.4294 35.9303Z"
          fill="#364D60"/>
    <path fill-rule="evenodd" clip-rule="evenodd"
          d="M3.35156 35.5688L9.67892 3.932H17.0458L11.8935 29.603H24.7878L23.4498 35.5688H3.35156ZM26.5368 35.5688H25.6562L26.8427 29.603H27.7571L26.5368 35.5688Z"
          fill="#364D60"/>
    <path fill-rule="evenodd" clip-rule="evenodd"
          d="M26.8427 29.603L25.6562 35.5688H32.6615L37.4974 11.2536H30.4921L26.8427 29.603Z" fill="#364D60"/>
    <path d="M30.6748 9.07521L32.4143 2.92017H39.3721L37.7665 9.07521H30.6748Z" fill="#313131"/>
    <path d="M0 66.0696L15.4817 39.3386L18.9344 45.2417L16.7068 48.9172L15.4817 47.0238L4.56654 66.0696H0Z"
          fill="#364D60"/>
    <path d="M8.79894 66.0696L24.2806 39.3386H28.7358L22.1644 50.8107L26.5082 58.3844L22.1644 58.4958L19.9368 54.7089L15.4817 62.2827H28.7358L30.852 66.0696H8.79894Z"
          fill="#364D60"/>
</svg>
